<?xml version="1.0" encoding="utf-8"?>
<!-- Generator: Adobe Illustrator 16.0.0, SVG Export Plug-In . SVG Version: 6.00 Build 0)  -->
<!DOCTYPE svg PUBLIC "-//W3C//DTD SVG 1.1//EN" "http://www.w3.org/Graphics/SVG/1.1/DTD/svg11.dtd">
<svg version="1.1" id="Layer_1" xmlns="http://www.w3.org/2000/svg" xmlns:xlink="http://www.w3.org/1999/xlink" x="0px" y="0px"
	 width="50.993px" height="50.993px" viewBox="0 0 50.993 50.993" enable-background="new 0 0 50.993 50.993" xml:space="preserve">
<path fill="#B3B3B3" d="M25.496,0C6.374,0,0,6.374,0,25.497s6.374,25.497,25.496,25.497c19.123,0,25.497-6.374,25.497-25.497
	S44.619,0,25.496,0z M15.496,16.063c2.485,0,4.5,2.015,4.5,4.5s-2.015,4.5-4.5,4.5s-4.5-2.015-4.5-4.5S13.011,16.063,15.496,16.063z
	 M37.982,37.312c-1.885,1.59-4.307,2.563-6.966,2.563h-11.04c-2.659,0-5.081-0.974-6.966-2.563c-0.669-0.448-1.11-1.211-1.11-2.077
	c0-1.381,1.119-2.5,2.5-2.5c0.694,0,1.322,0.284,1.775,0.741l0.008-0.008c1.022,0.875,2.346,1.408,3.793,1.408h11.04
	c1.448,0,2.771-0.532,3.793-1.408l0.008,0.008c0.453-0.457,1.081-0.741,1.775-0.741c1.381,0,2.5,1.119,2.5,2.5
	C39.092,36.101,38.651,36.863,37.982,37.312z M35.496,25.063c-2.485,0-4.5-2.015-4.5-4.5s2.015-4.5,4.5-4.5s4.5,2.015,4.5,4.5
	S37.981,25.063,35.496,25.063z"/>
</svg>
