<?xml version="1.0" encoding="utf-8"?>
<!-- Generator: Adobe Illustrator 16.0.0, SVG Export Plug-In . SVG Version: 6.00 Build 0)  -->
<!DOCTYPE svg PUBLIC "-//W3C//DTD SVG 1.1//EN" "http://www.w3.org/Graphics/SVG/1.1/DTD/svg11.dtd">
<svg version="1.1" id="Layer_1" xmlns="http://www.w3.org/2000/svg" xmlns:xlink="http://www.w3.org/1999/xlink" x="0px" y="0px"
	 width="43.9px" height="61.008px" viewBox="0 0 43.9 61.008" enable-background="new 0 0 43.9 61.008" xml:space="preserve">
<g>
	<path fill="#518BC9" d="M43.9,39.578c0-1.657-1.343-3-3-3c-0.785,0-1.493,0.309-2.028,0.802l-0.025-0.024
		c-4.035,4.817-10.09,7.889-16.85,7.894v-0.003c-0.016,0-0.031,0.001-0.047,0.002c-0.016-0.001-0.031-0.002-0.047-0.002v0.003
		c-6.76-0.005-12.814-3.077-16.85-7.894L5.028,37.38C4.493,36.887,3.785,36.578,3,36.578c-1.657,0-3,1.343-3,3
		c0,0.769,0.298,1.463,0.773,1.994l-0.009,0.009c4.523,5.216,10.939,8.743,18.182,9.509v3.834h-5.947
		c-1.68,0-3.042,1.362-3.042,3.042c0,1.68,1.362,3.042,3.042,3.042h17.896c1.68,0,3.041-1.362,3.041-3.042
		c0-1.68-1.361-3.042-3.041-3.042h-5.949V51.09c7.246-0.764,13.664-4.292,18.189-9.509l-0.009-0.009
		C43.603,41.041,43.9,40.347,43.9,39.578z"/>
	<path fill="#518BC9" d="M21.946,38c7.18,0,13-5.82,13-13V13c0-7.18-5.82-13-13-13s-13,5.82-13,13v12
		C8.946,32.18,14.767,38,21.946,38z"/>
</g>
</svg>
