<?xml version="1.0" encoding="utf-8"?>
<!-- Generator: Adobe Illustrator 16.0.0, SVG Export Plug-In . SVG Version: 6.00 Build 0)  -->
<!DOCTYPE svg PUBLIC "-//W3C//DTD SVG 1.1//EN" "http://www.w3.org/Graphics/SVG/1.1/DTD/svg11.dtd">
<svg version="1.1" id="Layer_1" xmlns="http://www.w3.org/2000/svg" xmlns:xlink="http://www.w3.org/1999/xlink" x="0px" y="0px"
	 width="242px" height="207.455px" viewBox="0 0 242 207.455" enable-background="new 0 0 242 207.455" xml:space="preserve">
<g>
	<g>
		<path fill="#FFFFFF" d="M57.626,115.253V51.864H34.576C15.48,51.864,0,67.344,0,86.439v63.39c0,19.094,15.48,34.575,34.576,34.575
			h27.882l17.313,17.313c0,0,5.443,5.737,10.068,5.737c5.245,0,5.245-5.696,5.245-5.696v-17.354h24.974
			c12.789,0,23.929-6.964,29.909-17.288H109.49C80.892,167.116,57.626,143.851,57.626,115.253z"/>
		<path fill="#FFFFFF" d="M242,6.978c0,0,0.063-6.978-6.674-6.978s-11.083,6.978-11.083,6.978l-16.167,21.835h-99.237L92.672,6.978
			c0,0-4.409-6.978-11.083-6.978s-6.674,6.978-6.674,6.978v108.275c0,19.096,15.481,34.576,34.576,34.576h65.932v31.35
			c0,0,0,6.107,4.864,6.107c3.5,0,8.247-4.28,8.247-4.28l43.196-43.163l-0.015,0.001c6.346-6.269,10.284-14.968,10.284-24.591V6.978
			z M121.001,115.24c-6.366,0-11.525-5.161-11.525-11.525s5.159-11.525,11.525-11.525c6.368,0,11.525,5.161,11.525,11.525
			S127.369,115.24,121.001,115.24z M158.458,115.253c-4.775,0-8.644-3.871-8.644-8.644s3.868-8.644,8.644-8.644
			s8.644,3.871,8.644,8.644S163.234,115.253,158.458,115.253z M195.916,115.24c-6.367,0-11.525-5.161-11.525-11.525
			s5.158-11.525,11.525-11.525c6.368,0,11.525,5.161,11.525,11.525S202.284,115.24,195.916,115.24z"/>
	</g>
</g>
</svg>
