<?xml version="1.0" encoding="utf-8"?>
<!-- Generator: Adobe Illustrator 16.0.0, SVG Export Plug-In . SVG Version: 6.00 Build 0)  -->
<!DOCTYPE svg PUBLIC "-//W3C//DTD SVG 1.1//EN" "http://www.w3.org/Graphics/SVG/1.1/DTD/svg11.dtd">
<svg version="1.1" id="Layer_1" xmlns="http://www.w3.org/2000/svg" xmlns:xlink="http://www.w3.org/1999/xlink" x="0px" y="0px"
	 width="16px" height="16px" viewBox="0 0 16 16" enable-background="new 0 0 16 16" xml:space="preserve">
<g>
	<path d="M5,0H2C0.896,0,0,0.896,0,2v3c0,1.104,0.896,2,2,2h3c1.104,0,2-0.896,2-2V2C7,0.896,6.104,0,5,0z M5,5H2V2h3V5z"/>
	<path d="M14,0h-3C9.896,0,9,0.896,9,2v3c0,1.104,0.896,2,2,2h3c1.104,0,2-0.896,2-2V2C16,0.896,15.104,0,14,0z M14,5h-3V2h3V5z"/>
	<path d="M5,9H2c-1.104,0-2,0.896-2,2v3c0,1.104,0.896,2,2,2h3c1.104,0,2-0.896,2-2v-3C7,9.896,6.104,9,5,9z M5,14H2v-3h3V14z"/>
	<path d="M14,9h-3c-1.104,0-2,0.896-2,2v3c0,1.104,0.896,2,2,2h3c1.104,0,2-0.896,2-2v-3C16,9.896,15.104,9,14,9z M14,14h-3v-3h3V14
		z"/>
</g>
</svg>
