<?xml version="1.0" encoding="utf-8"?>
<!-- Generator: Adobe Illustrator 16.0.0, SVG Export Plug-In . SVG Version: 6.00 Build 0)  -->
<!DOCTYPE svg PUBLIC "-//W3C//DTD SVG 1.1 Tiny//EN" "http://www.w3.org/Graphics/SVG/1.1/DTD/svg11-tiny.dtd">
<svg version="1.1" baseProfile="tiny" id="Layer_1" xmlns="http://www.w3.org/2000/svg" xmlns:xlink="http://www.w3.org/1999/xlink"
	 x="0px" y="0px" width="66px" height="76px" viewBox="0 0 66 76" xml:space="preserve">
<g>
	<path fill="#909090" d="M63,8H42.999V3c0-1.656-1.344-3-3-3h-6.996h-0.004h-6.997c-1.657,0-3,1.344-3,3v5H3c-1.657,0-3,1.344-3,3v2
		c0,1.656,1.343,3,3,3h60c1.656,0,3-1.344,3-3v-2C66,9.344,64.656,8,63,8z"/>
	<path fill="#909090" d="M55,24h-2c-1.658,0-3,1.344-3,3v35c0,3.309-2.691,6-6,6H22c-3.309,0-6-2.691-6-6V27c0-1.656-1.343-3-3-3h-2
		c-1.657,0-3,1.344-3,3v35c0,7.732,6.269,14,14,14h22c7.732,0,14-6.268,14-14V27C58,25.344,56.656,24,55,24z"/>
</g>
</svg>
