<?xml version="1.0" encoding="utf-8"?>
<!-- Generator: Adobe Illustrator 16.0.0, SVG Export Plug-In . SVG Version: 6.00 Build 0)  -->
<!DOCTYPE svg PUBLIC "-//W3C//DTD SVG 1.1//EN" "http://www.w3.org/Graphics/SVG/1.1/DTD/svg11.dtd">
<svg version="1.1" id="Layer_1" xmlns="http://www.w3.org/2000/svg" xmlns:xlink="http://www.w3.org/1999/xlink" x="0px" y="0px"
	 width="20.998px" height="14.001px" viewBox="0 0 20.998 14.001" enable-background="new 0 0 20.998 14.001" xml:space="preserve">
<g>
	<g>
		<g>
			<circle fill="#857CBA" cx="7.001" cy="3" r="3"/>
			<path fill="#857CBA" d="M7.961,8.001c-0.299,0-0.621,0-0.952,0c-0.005,0-0.01,0-0.015,0c-0.332,0-0.654,0-0.953,0
				C1.896,8.001,0,9.967,0,12.644c0,0.977,0.809,1.357,1.806,1.357h5.188h0.015h5.188c0.997,0,1.806-0.38,1.806-1.357
				C14.003,9.967,12.106,8.001,7.961,8.001z"/>
		</g>
	</g>
	<circle fill="#F58882" cx="14.997" cy="3.572" r="2.571"/>
	<path fill="#F58882" d="M15.82,7.858c-0.256,0-0.532,0-0.816,0c-0.004,0-0.008,0-0.013,0c-0.058,0-0.789,0-0.845,0
		c1.167,1.08,1.857,2.477,1.857,3.785c0,0.464-0.101,0.926-0.289,1.356h3.736c0.854,0,1.547-0.326,1.547-1.163
		C20.998,9.542,19.373,7.858,15.82,7.858z"/>
</g>
</svg>
