<?xml version="1.0" encoding="utf-8"?>
<!-- Generator: Adobe Illustrator 16.0.0, SVG Export Plug-In . SVG Version: 6.00 Build 0)  -->
<!DOCTYPE svg PUBLIC "-//W3C//DTD SVG 1.1 Tiny//EN" "http://www.w3.org/Graphics/SVG/1.1/DTD/svg11-tiny.dtd">
<svg version="1.1" baseProfile="tiny" id="Layer_1" xmlns="http://www.w3.org/2000/svg" xmlns:xlink="http://www.w3.org/1999/xlink"
	 x="0px" y="0px" width="84px" height="68px" viewBox="0 0 84 68" xml:space="preserve">
<g>
	<path fill="#909090" d="M53,45.996h-2c-1.656,0-3,1.344-3,3v3.5V54c0,3.309-2.692,6-6,6H14c-3.309,0-6-2.691-6-6V14
		c0-3.309,2.691-6,6-6h27.999c3.309,0,6,2.691,6,6v1.504v3.5c0,1.656,1.344,3,3,3h2c1.658,0,3-1.344,3-3v-3.5V14
		c0-7.732-6.268-14-14.001-14H14C6.269,0,0,6.268,0,14v40c0,7.732,6.269,14,14,14h27.999C49.732,68,56,61.732,56,54v-1.504v-3.5
		C56,47.34,54.658,45.996,53,45.996z"/>
	<path fill="#909090" d="M81.74,30.093L70.525,18.877c-1.17-1.17-3.07-1.17-4.242,0.001l-1.414,1.414
		c-1.172,1.171-1.172,3.071,0,4.243L70.334,30H34c-1.656,0-3,1.343-3,3v2c0,1.656,1.344,3,3,3h36.334l-5.465,5.465
		c-1.172,1.17-1.172,3.07,0,4.242l1.414,1.414c1.172,1.172,3.072,1.172,4.242,0L81.74,37.906c0,0,2.26-1.873,2.26-3.906
		C84,31.965,81.74,30.093,81.74,30.093z"/>
</g>
</svg>
