<?xml version="1.0" encoding="utf-8"?>
<!-- Generator: Adobe Illustrator 16.0.0, SVG Export Plug-In . SVG Version: 6.00 Build 0)  -->
<!DOCTYPE svg PUBLIC "-//W3C//DTD SVG 1.1//EN" "http://www.w3.org/Graphics/SVG/1.1/DTD/svg11.dtd">
<svg version="1.1" id="Layer_1" xmlns="http://www.w3.org/2000/svg" xmlns:xlink="http://www.w3.org/1999/xlink" x="0px" y="0px"
	 width="16px" height="16px" viewBox="0 0 16 16" enable-background="new 0 0 16 16" xml:space="preserve">
<g>
	<path d="M1.464,14.535c-1.953-1.952-1.951-5.118,0-7.072l0.707-0.707v0c0.391-0.39,1.023-0.39,1.414,0s0.391,1.024,0,1.414v0
		L2.879,8.878c-1.17,1.17-1.171,3.074,0,4.242c1.169,1.169,3.072,1.171,4.241,0.002l0.703-0.703
		c0.002-0.001,0.002-0.004,0.004-0.006c0.391-0.39,1.023-0.391,1.415,0c0.39,0.39,0.39,1.024,0,1.414l-0.001,0l-0.707,0.708
		C6.583,16.487,3.417,16.489,1.464,14.535z"/>
	<path d="M12.414,9.242c-0.391-0.391-0.391-1.024,0-1.415c0.002-0.001,0.004-0.002,0.006-0.004l0.703-0.703
		c1.169-1.169,1.168-3.072-0.002-4.242c-1.168-1.17-3.072-1.169-4.242,0L8.171,3.585l0,0c-0.391,0.391-1.023,0.391-1.414,0
		s-0.391-1.024,0-1.415l0,0l0.707-0.707c1.953-1.95,5.119-1.952,7.071,0c1.954,1.953,1.952,5.119,0,7.07l-0.708,0.708l0,0
		C13.437,9.632,12.804,9.632,12.414,9.242z"/>
	<path d="M9.58,5.004c0.004,0,0.002-0.004,0.004-0.007c0.393-0.39,1.025-0.39,1.416,0.001c0.393,0.39,0.393,1.025,0,1.417
		c0,0-0.002,0.003-0.006,0.003l-4.574,4.575c0,0.003-0.003,0.005-0.003,0.005c-0.393,0.393-1.028,0.392-1.417,0
		c-0.391-0.391-0.391-1.023-0.002-1.416C5.001,9.581,5.005,9.583,5.005,9.58L9.58,5.004z"/>
</g>
</svg>
