<?xml version="1.0" encoding="utf-8"?>
<!-- Generator: Adobe Illustrator 16.0.0, SVG Export Plug-In . SVG Version: 6.00 Build 0)  -->
<!DOCTYPE svg PUBLIC "-//W3C//DTD SVG 1.1 Tiny//EN" "http://www.w3.org/Graphics/SVG/1.1/DTD/svg11-tiny.dtd">
<svg version="1.1" baseProfile="tiny" id="Layer_1" xmlns="http://www.w3.org/2000/svg" xmlns:xlink="http://www.w3.org/1999/xlink"
	 x="0px" y="0px" width="70.074px" height="78.068px" viewBox="0 0 70.074 78.068" xml:space="preserve">
<g>
	<path fill="#909090" d="M21.078,29.069c0-8.822,7.178-16,16-16c2.072,0,4.048,0.409,5.867,1.13l5.979-5.98
		c-2.107-1.199-4.403-2.105-6.847-2.624V5.069c0-2.761-2.238-5-5-5c-2.761,0-5,2.239-5,5v0.525c-10.854,2.301-19,11.935-19,23.475
		v10.687c0,1.635-0.01,3.07-0.031,4.34l8.031-8.031V29.069z"/>
	<path fill="#909090" d="M37.079,78.068c4.842,0,8.878-3.439,9.801-8.01H27.278C28.201,74.629,32.238,78.068,37.079,78.068z"/>
	<path fill="#909090" d="M64.543,54.475c-2.791-0.977-3.463-0.969-3.463-14.719c0-0.227-0.002-10.687-0.002-10.687
		c0-3.071-0.596-5.997-1.65-8.693l9.475-9.474c1.563-1.563,1.563-4.095,0-5.656c-1.563-1.563-4.096-1.563-5.656,0L1.171,67.318
		c-1.562,1.563-1.562,4.096,0,5.658s4.095,1.561,5.657,0l6.907-6.908h49.588c3.176,0,5.75-2.574,5.75-5.75
		S67.332,55.453,64.543,54.475z M21.736,58.068l31.19-31.19c0.1,0.717,0.152,1.447,0.152,2.19v12.375h0.004
		c0.012,7.672,0.191,13.057,2.891,16.625H21.736z"/>
</g>
</svg>
