<?xml version="1.0" encoding="utf-8"?>
<!-- Generator: Adobe Illustrator 16.0.0, SVG Export Plug-In . SVG Version: 6.00 Build 0)  -->
<!DOCTYPE svg PUBLIC "-//W3C//DTD SVG 1.1//EN" "http://www.w3.org/Graphics/SVG/1.1/DTD/svg11.dtd">
<svg version="1.1" id="Layer_1" xmlns="http://www.w3.org/2000/svg" xmlns:xlink="http://www.w3.org/1999/xlink" x="0px" y="0px"
	 width="16px" height="16.013px" viewBox="0 0 16 16.013" enable-background="new 0 0 16 16.013" xml:space="preserve">
<g>
	<path d="M5.256,9.795l-1.3-1.212L0,12.282v1.731c0,1.104,0.896,2,2,2h12c1.104,0,2-0.896,2-2v-1.781L9.31,6.013L5.256,9.795z
		 M14,13.103v0.91H2V13.15l1.958-1.831l1.298,1.211l1.364-1.273l2.692-2.512L14,13.103z"/>
	<path d="M14,0.013H2c-1.104,0-2,0.896-2,2v7.269l2-1.87V2.013h12v5.359l2,1.859V2.013C16,0.908,15.104,0.013,14,0.013z"/>
</g>
</svg>
