<?xml version="1.0" encoding="utf-8"?>
<!-- Generator: Adobe Illustrator 16.0.0, SVG Export Plug-In . SVG Version: 6.00 Build 0)  -->
<!DOCTYPE svg PUBLIC "-//W3C//DTD SVG 1.1 Tiny//EN" "http://www.w3.org/Graphics/SVG/1.1/DTD/svg11-tiny.dtd">
<svg version="1.1" baseProfile="tiny" id="Layer_1" xmlns="http://www.w3.org/2000/svg" xmlns:xlink="http://www.w3.org/1999/xlink"
	 x="0px" y="0px" width="78px" height="77.99px" viewBox="0 0 78 77.99" xml:space="preserve">
<path fill="#909090" d="M76.828,28.082L49.916,1.171c-1.562-1.562-4.095-1.562-5.657,0c-1.499,1.499-1.542,3.884-0.164,5.455
	L13.808,31.151l-2.979-2.98c-1.562-1.562-4.095-1.562-5.657,0c-1.562,1.562-1.561,4.095,0,5.656l16.668,16.667L1.172,71.162
	c-1.563,1.563-1.563,4.096,0,5.657c1.561,1.562,4.094,1.562,5.656-0.001l20.667-20.667l16.589,16.588
	c1.563,1.563,4.096,1.563,5.656,0.002c1.563-1.563,1.563-4.096,0-5.658l-2.979-2.979l24.519-30.278
	c1.569,1.463,4.021,1.441,5.549-0.086C78.391,32.178,78.391,29.645,76.828,28.082z M19.495,36.838l30.266-24.509l15.823,15.822
	l-24.51,30.266L19.495,36.838z"/>
</svg>
