<?xml version="1.0" encoding="utf-8"?>
<!-- Generator: Adobe Illustrator 16.0.0, SVG Export Plug-In . SVG Version: 6.00 Build 0)  -->
<!DOCTYPE svg PUBLIC "-//W3C//DTD SVG 1.1//EN" "http://www.w3.org/Graphics/SVG/1.1/DTD/svg11.dtd">
<svg version="1.1" id="Layer_1" xmlns="http://www.w3.org/2000/svg" xmlns:xlink="http://www.w3.org/1999/xlink" x="0px" y="0px"
	 width="12px" height="12px" viewBox="0 0 12 12" enable-background="new 0 0 12 12" xml:space="preserve">
<path d="M11.708,10.293L9.168,7.754C9.692,6.964,10,6.019,10,5c0-2.761-2.238-5-5-5C2.238,0,0,2.239,0,5s2.238,5,5,5
	c1.019,0,1.964-0.308,2.754-0.832l2.539,2.539c0.391,0.39,1.023,0.39,1.414,0C12.098,11.317,12.098,10.684,11.708,10.293z M2,5
	c0-1.654,1.346-3,3-3s3,1.346,3,3S6.654,8,5,8S2,6.654,2,5z"/>
</svg>
