<?xml version="1.0" encoding="utf-8"?>
<!-- Generator: Adobe Illustrator 16.0.0, SVG Export Plug-In . SVG Version: 6.00 Build 0)  -->
<!DOCTYPE svg PUBLIC "-//W3C//DTD SVG 1.1//EN" "http://www.w3.org/Graphics/SVG/1.1/DTD/svg11.dtd">
<svg version="1.1" id="Layer_1" xmlns="http://www.w3.org/2000/svg" xmlns:xlink="http://www.w3.org/1999/xlink" x="0px" y="0px"
	 width="14px" height="17.999px" viewBox="0 0 14 17.999" enable-background="new 0 0 14 17.999" xml:space="preserve">
<g>
	<path d="M11.885,10.021c0.553,0,1-0.448,1-1c0-0.553-0.447-1-1-1H1c-0.552,0-1,0.447-1,1c0,0.552,0.448,1,1,1H11.885z"/>
	<path d="M4.922,1.893l7.629,3.833c0.492,0.248,1.094,0.05,1.342-0.443s0.05-1.095-0.443-1.343L5.821,0.107
		C5.327-0.141,4.727,0.057,4.478,0.55C4.229,1.043,4.429,1.645,4.922,1.893z"/>
	<path d="M12.551,12.273l-7.629,3.833c-0.493,0.248-0.692,0.85-0.444,1.343c0.249,0.493,0.85,0.691,1.344,0.443l7.628-3.833
		c0.493-0.248,0.691-0.85,0.443-1.343S13.043,12.025,12.551,12.273z"/>
</g>
</svg>
