<?xml version="1.0" encoding="utf-8"?>
<!-- Generator: Adobe Illustrator 16.0.0, SVG Export Plug-In . SVG Version: 6.00 Build 0)  -->
<!DOCTYPE svg PUBLIC "-//W3C//DTD SVG 1.1 Tiny//EN" "http://www.w3.org/Graphics/SVG/1.1/DTD/svg11-tiny.dtd">
<svg version="1.1" baseProfile="tiny" id="Layer_1" xmlns="http://www.w3.org/2000/svg" xmlns:xlink="http://www.w3.org/1999/xlink"
	 x="0px" y="0px" width="63.99px" height="78px" viewBox="0 0 63.99 78" xml:space="preserve">
<g>
	<path fill="#909090" d="M59.459,54.406c-2.791-0.978-3.463-0.969-3.463-14.719c0-0.227-0.002-10.688-0.002-10.688
		c0-11.54-8.146-21.174-19-23.475V5c0-2.761-2.238-5-5-5c-2.761,0-5,2.239-5,5v0.525c-10.854,2.301-19,11.935-19,23.475v10.688
		c0,13.75-0.672,13.741-3.462,14.719C1.741,55.384,0,57.074,0,60.25S2.575,66,5.75,66h52.49c3.176,0,5.75-2.574,5.75-5.75
		S62.248,55.384,59.459,54.406z M13.102,58c2.697-3.569,2.878-8.954,2.891-16.625h0.001V29c0-8.822,7.178-16,16-16s16,7.178,16,16
		v12.375h0.004C48.009,49.046,48.19,54.431,50.888,58H13.102z"/>
	<path fill="#909090" d="M31.995,78c4.842,0,8.878-3.439,9.801-8.01H22.194C23.117,74.561,27.154,78,31.995,78z"/>
</g>
</svg>
