<?xml version="1.0" encoding="utf-8"?>
<!-- Generator: Adobe Illustrator 16.0.0, SVG Export Plug-In . SVG Version: 6.00 Build 0)  -->
<!DOCTYPE svg PUBLIC "-//W3C//DTD SVG 1.1//EN" "http://www.w3.org/Graphics/SVG/1.1/DTD/svg11.dtd">
<svg version="1.1" id="Layer_1" xmlns="http://www.w3.org/2000/svg" xmlns:xlink="http://www.w3.org/1999/xlink" x="0px" y="0px"
	 width="85px" height="81px" viewBox="0 0 85 81" enable-background="new 0 0 85 81" xml:space="preserve">
<g>
	<g>
		<path fill="#B9B9B9" d="M59,5c0-2.761-2.238-5-5-5H8C3.582,0,0,3.582,0,8v29c0,2.761,2.238,5,5,5s5-2.239,5-5V10h44
			C56.762,10,59,7.761,59,5z"/>
		<path fill="#B9B9B9" d="M77,17H25c-4.418,0-8,3.582-8,8v33c0,4.418,3.582,8,8,8h11l0,10c0,0,0,5,5,5
			c2.292,0,3.257-1.214,3.257-1.214L58,66h19c4.418,0,8-3.582,8-8V25C85,20.582,81.418,17,77,17z M75,56H58
			c-2.657,0-5.206,1.058-7.082,2.94L46,63.873V61c0,0,0-5-5-5H27V27h48V56z"/>
	</g>
</g>
</svg>
