<?xml version="1.0" encoding="utf-8"?>
<!-- Generator: Adobe Illustrator 16.0.0, SVG Export Plug-In . SVG Version: 6.00 Build 0)  -->
<!DOCTYPE svg PUBLIC "-//W3C//DTD SVG 1.1//EN" "http://www.w3.org/Graphics/SVG/1.1/DTD/svg11.dtd">
<svg version="1.1" id="Layer_1" xmlns="http://www.w3.org/2000/svg" xmlns:xlink="http://www.w3.org/1999/xlink" x="0px" y="0px"
	 width="75.991px" height="79.99px" viewBox="0 0 75.991 79.99" enable-background="new 0 0 75.991 79.99" xml:space="preserve">
<g>
	<g>
		<path fill="#919191" d="M63.989,27.99h-6.988V19h-0.005c0-10.494-8.506-19-18.999-19c-10.494,0-19,8.506-19,19
			c0,1.933,1.567,3.5,3.5,3.5s3.5-1.567,3.5-3.5c0-6.617,5.383-12,12-12c6.616,0,11.999,5.383,11.999,12h0.005v12.49
			c0,1.933,1.567,3.5,3.5,3.5h10.488c2.945,0,5.002,2.057,5.002,5.002c0,3.915-1.409,10.434-2.771,16.737
			c-0.731,3.381-1.487,6.876-2.041,10.058c-1.08,6.203-2.568,6.203-5.27,6.203H17.083c-2.701,0-4.189,0-5.269-6.203
			c-0.554-3.182-1.31-6.677-2.041-10.058C8.41,50.426,7.001,43.908,7.001,39.993c0-2.945,2.057-5.002,5.002-5.002h27.498
			c1.934,0,3.5-1.567,3.5-3.5s-1.566-3.5-3.5-3.5H12.003c-6.629,0-12.002,4.995-12.002,12.002s3.333,18.901,4.917,27.996
			S10.454,79.99,17.083,79.99h41.826c6.629,0,10.582-2.907,12.166-12.002c1.583-9.095,4.916-20.988,4.916-27.996
			S70.618,27.99,63.989,27.99z"/>
		<path fill="#919191" d="M37.054,42.99c-5.555,0-10.058,4.502-10.058,10.058v1.885c0,5.555,4.503,10.058,10.058,10.058h1.885
			c5.555,0,10.058-4.503,10.058-10.058v-1.885c0-5.556-4.503-10.058-10.058-10.058H37.054z M41.996,53.048v1.885
			c0,1.686-1.372,3.058-3.058,3.058h-1.885c-1.686,0-3.058-1.372-3.058-3.058v-1.885c0-1.686,1.372-3.058,3.058-3.058h1.885
			C40.624,49.99,41.996,51.362,41.996,53.048z"/>
	</g>
</g>
</svg>
