<?xml version="1.0" encoding="utf-8"?>
<!-- Generator: Adobe Illustrator 16.0.0, SVG Export Plug-In . SVG Version: 6.00 Build 0)  -->
<!DOCTYPE svg PUBLIC "-//W3C//DTD SVG 1.1//EN" "http://www.w3.org/Graphics/SVG/1.1/DTD/svg11.dtd">
<svg version="1.1" id="Layer_1" xmlns="http://www.w3.org/2000/svg" xmlns:xlink="http://www.w3.org/1999/xlink" x="0px" y="0px"
	 width="78px" height="78px" viewBox="0 0 78 78" enable-background="new 0 0 78 78" xml:space="preserve">
<g>
	<g>
		<path fill="#919191" d="M38.708,48.823c-1.302,0-2.389,0.383-3.259,1.148c-0.872,0.767-1.307,1.748-1.307,2.941
			s0.436,2.174,1.307,2.939C36.319,56.617,37.406,57,38.708,57c1.302,0,2.389-0.383,3.259-1.148
			c0.872-0.766,1.307-1.746,1.307-2.939s-0.435-2.174-1.307-2.941C41.097,49.206,40.01,48.823,38.708,48.823z"/>
		<path fill="#919191" d="M47.107,37.597c1.188-1.145,2.051-2.266,2.588-3.363s0.805-2.314,0.805-3.653
			c0-3.064-0.997-5.427-2.99-7.088C45.516,21.831,42.704,21,39.074,21c-3.646,0-6.479,0.899-8.497,2.698
			c-2.019,1.798-3.044,4.311-3.077,7.536h8.253c0.033-1.209,0.35-2.169,0.952-2.879c0.602-0.71,1.392-1.065,2.368-1.065
			c2.116,0,3.174,1.218,3.174,3.653c0,1-0.313,1.916-0.94,2.746c-0.627,0.831-1.542,1.746-2.747,2.746s-2.076,2.181-2.612,3.544
			c-0.537,1.363-0.806,3.222-0.806,5.576h6.983c0.033-1.226,0.203-2.238,0.513-3.036s0.862-1.577,1.66-2.335L47.107,37.597z"/>
		<path fill="#919191" d="M71,39c0,1.934,1.567,3.5,3.5,3.5S78,40.934,78,39C78,9.75,68.25,0,39,0S0,9.75,0,39s9.75,39,39,39
			c21.798,0,32.764-5.421,36.937-20.286c0.223-0.794,0.913-4.293-2.574-5.045s-4.324,2.581-4.324,2.581
			C65.426,66.768,56.439,71,39,71C15,71,7,63,7,39S15,7,39,7S71,15,71,39z"/>
	</g>
</g>
</svg>
