<?xml version="1.0" encoding="utf-8"?>
<!-- Generator: Adobe Illustrator 16.0.0, SVG Export Plug-In . SVG Version: 6.00 Build 0)  -->
<!DOCTYPE svg PUBLIC "-//W3C//DTD SVG 1.1//EN" "http://www.w3.org/Graphics/SVG/1.1/DTD/svg11.dtd">
<svg version="1.1" id="Layer_1" xmlns="http://www.w3.org/2000/svg" xmlns:xlink="http://www.w3.org/1999/xlink" x="0px" y="0px"
	 width="70px" height="76px" viewBox="0 0 70 76" enable-background="new 0 0 70 76" xml:space="preserve">
<g>
	<path d="M18,28c7.732,0,14-6.268,14-14S25.732,0,18,0S4,6.268,4,14S10.268,28,18,28z M18,7c3.86,0,7,3.14,7,7s-3.14,7-7,7
		s-7-3.14-7-7S14.14,7,18,7z"/>
	<path d="M55,16c-8.284,0-15,6.716-15,15s6.716,15,15,15c8.285,0,15-6.716,15-15S63.285,16,55,16z M55,39c-4.411,0-8-3.589-8-8
		s3.589-8,8-8s8,3.589,8,8S59.411,39,55,39z"/>
	<path d="M18,40C8.059,40,0,48.06,0,58c0,9.942,8.059,18,18,18l2-0.01c1.933,0,3.5-1.566,3.5-3.499s-1.567-3.5-3.5-3.5L18,69
		c-6.065,0-11-4.935-11-11s4.935-11,11-11s11,4.934,11,11l0,2.001c0,1.933,1.567,3.499,3.5,3.499c1.933,0,3.5-1.566,3.5-3.499V58
		C36,48.06,27.942,40,18,40z"/>
</g>
</svg>
