<?xml version="1.0" encoding="utf-8"?>
<!-- Generator: Adobe Illustrator 16.0.0, SVG Export Plug-In . SVG Version: 6.00 Build 0)  -->
<!DOCTYPE svg PUBLIC "-//W3C//DTD SVG 1.1//EN" "http://www.w3.org/Graphics/SVG/1.1/DTD/svg11.dtd">
<svg version="1.1" id="Layer_1" xmlns="http://www.w3.org/2000/svg" xmlns:xlink="http://www.w3.org/1999/xlink" x="0px" y="0px"
	 width="30.348px" height="21.65px" viewBox="0 0 30.348 21.65" enable-background="new 0 0 30.348 21.65" xml:space="preserve">
<g display="none">
	<defs>
		<circle id="SVGID_1_" cx="19.998" cy="19.998" r="19.998"/>
	</defs>
	<clipPath id="SVGID_2_" display="inline">
		<use xlink:href="#SVGID_1_"  overflow="visible"/>
	</clipPath>
	<path display="inline" clip-path="url(#SVGID_2_)" fill-rule="evenodd" clip-rule="evenodd" fill="#9F9E9F" d="M38.722,27.1
		c-0.125-0.3-0.289-0.578-0.487-0.833c-0.353-0.45-0.817-0.766-1.329-1.008c-0.148-0.07-0.293-0.155-0.458-0.192
		c-0.51-0.116-1.015-0.252-1.517-0.403c-0.179,0.011-0.333-0.052-0.468-0.164c-0.373-0.151-0.762-0.26-1.109-0.471
		c-0.122-0.019-0.238-0.049-0.322-0.149c-0.063-0.017-0.116-0.059-0.179-0.076c-0.181-0.044-0.332-0.137-0.447-0.284
		c-0.069-0.046-0.144-0.087-0.208-0.139c-0.083-0.043-0.134-0.102-0.157-0.203c-0.03-0.132-0.07-0.262-0.105-0.392
		c-0.047-0.131-0.049-0.27-0.078-0.404c-0.016-0.076-0.035-0.142-0.118-0.164c-0.08-0.041-0.157-0.002-0.232,0.014
		c-0.155,0.033-0.239-0.015-0.264-0.179c-0.018-0.118-0.05-0.236-0.055-0.353c-0.013-0.26-0.052-0.536,0.198-0.728
		c0.291-0.59,0.506-1.208,0.681-1.842c0.04-0.143,0.106-0.263,0.296-0.268c0.114-0.003,0.207-0.083,0.244-0.207
		c0.112-0.372,0.219-0.746,0.391-1.097c0.053-0.256,0.18-0.494,0.191-0.76c-0.003-0.053,0.012-0.107,0.006-0.16
		c-0.005-0.021-0.016-0.04-0.03-0.057c-0.01-0.006-0.02-0.013-0.028-0.021c0.005-0.113,0.014-0.227,0.01-0.34
		c-0.006-0.159-0.082-0.291-0.237-0.332c-0.144-0.037-0.17-0.117-0.161-0.243c0.033-0.5,0.062-1.002,0.091-1.502
		c0.006-0.017,0.003-0.033-0.005-0.047c0.005-0.008,0.006-0.018,0-0.03c-0.014-0.152-0.027-0.304-0.045-0.455
		c-0.041-0.362-0.08-0.728-0.27-1.049c-0.366-0.62-0.875-1.095-1.516-1.421c-0.542-0.276-1.13-0.413-1.722-0.531
		c-1.229-0.247-2.325,0.027-3.28,0.844c0.004,0.008,0.006,0.017,0.008,0.025c-0.108,0.069-0.194,0.161-0.253,0.274
		c-0.115,0.213-0.282,0.387-0.454,0.549c-0.319,0.298-0.494,0.645-0.442,1.085c-0.012,0.005-0.024,0.011-0.036,0.02
		c-0.016,0.017-0.029,0.036-0.039,0.056c-0.077,0.357,0.02,0.713,0.019,1.07c0.088,0.301,0.089,0.612,0.115,0.921
		c0.014,0.169-0.034,0.285-0.198,0.342c-0.208,0.073-0.292,0.241-0.319,0.442c-0.029,0.21-0.035,0.42,0.022,0.63
		c0.081,0.294,0.167,0.587,0.261,0.876c0.151,0.245,0.242,0.518,0.296,0.793c0.036,0.183,0.112,0.288,0.272,0.346
		c0.131,0.048,0.203,0.138,0.232,0.272c0.046,0.214,0.126,0.418,0.192,0.626c0.076,0.169,0.201,0.32,0.202,0.518
		c0.002,0.021,0.006,0.041,0.015,0.06c0.362,0.578,0.556,1.183,0.318,1.863c-0.124,0.132-0.246-0.005-0.368-0.008
		c-0.123-0.002-0.227-0.013-0.257,0.138c-0.094,0.295-0.145,0.602-0.238,0.896c-0.051,0.162-0.132,0.279-0.287,0.357
		c-0.336,0.17-0.678,0.325-1.042,0.428c-0.241,0.17-0.532,0.224-0.803,0.323c-0.526,0.194-1.077,0.305-1.618,0.45
		c-0.032,0.008-0.063,0.019-0.094,0.027c0.224,0.139,0.437,0.384,0.529,0.817c0.02,0.095,0.034,0.191,0.047,0.287
		c0.011,0.082,0.024,0.174,0.038,0.213l0.012,0.034l0.009,0.035l0.047,0.167c0.029,0.103,0.058,0.205,0.085,0.31
		c0.031,0.021,0.064,0.041,0.096,0.061l0.126,0.081l0.122,0.081l0.09,0.115c0.036,0.045,0.083,0.09,0.221,0.125
		c0.126,0.035,0.226,0.084,0.312,0.127l0.234,0.062l0.114,0.136c0.005,0,0.01,0.001,0.015,0.002l0.176,0.028l0.153,0.092
		c0.305,0.185,0.666,0.318,1.048,0.459c0.181,0.067,0.362,0.134,0.541,0.207l0.126,0.051l0.105,0.086
		c0.019,0.015,0.064,0.05,0.094,0.05h0l0.161-0.01l0.155,0.046c0.826,0.247,1.575,0.445,2.288,0.608
		c0.305,0.068,0.559,0.195,0.762,0.296l0.136,0.066c1.023,0.484,1.803,1.08,2.384,1.822c0.358,0.458,0.654,0.962,0.878,1.498
		l0.071,0.169v0.183v1.476c0,0.194-0.006,0.343-0.326,0.759c-0.359-0.277-0.584-0.472-0.584-0.525v-1.476
		c-0.194-0.464-0.448-0.896-0.755-1.289c-0.545-0.697-1.265-1.186-2.057-1.561c-0.23-0.109-0.455-0.24-0.708-0.297
		c-0.79-0.18-1.571-0.392-2.348-0.624c-0.277,0.017-0.514-0.081-0.725-0.253c-0.577-0.235-1.18-0.404-1.718-0.73
		c-0.188-0.03-0.368-0.076-0.498-0.23c-0.098-0.026-0.18-0.091-0.278-0.119c-0.28-0.069-0.513-0.211-0.692-0.439
		c-0.107-0.071-0.222-0.134-0.323-0.215c-0.128-0.068-0.207-0.157-0.242-0.314c-0.047-0.204-0.108-0.405-0.164-0.606
		c-0.073-0.203-0.077-0.417-0.12-0.626c-0.025-0.117-0.054-0.219-0.183-0.254c-0.125-0.063-0.243-0.003-0.361,0.022
		c-0.239,0.052-0.37-0.023-0.408-0.277c-0.027-0.183-0.077-0.366-0.086-0.546c-0.02-0.403-0.081-0.83,0.306-1.126
		c0.451-0.914,0.784-1.87,1.055-2.852c0.061-0.221,0.165-0.407,0.458-0.416c0.176-0.004,0.32-0.129,0.377-0.319
		c0.174-0.576,0.339-1.155,0.606-1.699c0.082-0.396,0.278-0.765,0.295-1.177c-0.004-0.082,0.018-0.165,0.01-0.247
		c-0.009-0.034-0.024-0.062-0.048-0.088c-0.015-0.01-0.03-0.021-0.043-0.033c0.008-0.176,0.022-0.352,0.016-0.527
		c-0.009-0.246-0.127-0.45-0.368-0.513c-0.222-0.058-0.263-0.18-0.249-0.377c0.051-0.774,0.095-1.551,0.141-2.326
		c0.009-0.027,0.005-0.051-0.008-0.072c0.009-0.013,0.009-0.029,0-0.046c-0.022-0.235-0.042-0.47-0.069-0.704
		c-0.063-0.561-0.124-1.128-0.418-1.625c-0.567-0.96-1.355-1.696-2.347-2.2c-0.838-0.427-1.75-0.639-2.666-0.822
		c-1.904-0.383-3.6,0.042-5.079,1.306c0.006,0.012,0.009,0.026,0.011,0.04C11.92,9.3,11.79,9.443,11.696,9.618
		c-0.178,0.331-0.436,0.6-0.703,0.85c-0.494,0.462-0.764,0.998-0.684,1.68c-0.018,0.008-0.037,0.017-0.055,0.031
		c-0.024,0.025-0.045,0.054-0.061,0.086c-0.119,0.554,0.031,1.104,0.029,1.656c0.136,0.466,0.139,0.949,0.178,1.427
		c0.022,0.263-0.051,0.44-0.305,0.53c-0.323,0.113-0.451,0.374-0.494,0.685c-0.045,0.326-0.055,0.651,0.035,0.976
		c0.125,0.456,0.258,0.909,0.405,1.357c0.233,0.379,0.375,0.802,0.459,1.228c0.055,0.283,0.174,0.445,0.42,0.536
		c0.204,0.074,0.314,0.213,0.359,0.421c0.072,0.332,0.196,0.648,0.297,0.97c0.118,0.262,0.312,0.495,0.313,0.801
		c0.003,0.032,0.01,0.063,0.023,0.093c0.561,0.894,0.861,1.832,0.493,2.885c-0.192,0.204-0.381-0.01-0.571-0.013
		s-0.351-0.021-0.397,0.213c-0.145,0.457-0.224,0.932-0.368,1.389c-0.079,0.25-0.205,0.432-0.443,0.552
		c-0.521,0.263-1.05,0.504-1.612,0.663c-0.375,0.264-0.825,0.346-1.244,0.5c-0.814,0.3-1.667,0.471-2.504,0.696
		c-1.026,0.274-2.02,0.616-2.877,1.271c-0.376,0.461-0.853,0.849-1.115,1.395v2.353c0,0.281,5.086,5.366,5.366,5.366l30.985-0.967
		c0.133,0-1.163-0.917-2.568-1.915c0.473-0.823,3.665-9.11,3.665-9.282V27.1z"/>
</g>
<g>
	<path fill="#9F9E9F" d="M29.77,14.605c-1.34-1.385-3.299-2.465-5.609-3.047c-0.574-0.264,0.184-0.963,0.179-0.966
		c1.388-0.828,2.323-2.336,2.323-4.07c0-2.625-2.127-4.753-4.752-4.753c-0.207,0-0.408,0.02-0.606,0.046
		c0.239,0.361,0.449,0.746,0.622,1.148c1.956,0.009,3.544,1.601,3.544,3.559c0,1.281-0.682,2.407-1.702,3.035
		c-0.247,0.151-2.401,2.16,0.11,3.451c2.067,0.471,3.4,1.269,4.617,2.425c0.136,0.13,0.387,0.506,0.387,1.238
		c0,0.071,0,0.13,0,0.188c0,0.104,0,0.107,0,0.107c0,0.403-0.328,0.732-0.732,0.732h-1.427c0.032,0.207,0.054,0.419,0.054,0.644
		v0.82h1.373c1.214,0,2.197-0.983,2.197-2.196c0,0,0-0.04,0-0.107c0-0.147,0-0.327,0-0.55c0-0.009,0-0.017,0-0.025
		C30.348,15.46,29.978,14.821,29.77,14.605z"/>
	<path fill="#9F9E9F" d="M14.577,11.642c0.196,0.02,0.396,0.03,0.597,0.03c0.202,0,0.4-0.01,0.597-0.03
		c2.943-0.299,5.24-2.785,5.24-5.807c0-3.021-2.297-5.506-5.24-5.805C15.574,0.01,15.375,0,15.174,0c-0.201,0-0.4,0.01-0.597,0.03
		c-2.943,0.299-5.24,2.783-5.24,5.805C9.337,8.857,11.634,11.343,14.577,11.642z M19.457,4.955c0.058,0.284,0.089,0.579,0.089,0.88
		s-0.031,0.596-0.089,0.88c-0.409,1.991-2.174,3.491-4.283,3.491s-3.874-1.5-4.283-3.491c-0.058-0.284-0.089-0.579-0.089-0.88
		s0.031-0.596,0.089-0.88c0.409-1.99,2.174-3.491,4.283-3.491S19.048,2.965,19.457,4.955z"/>
	<path fill="#9F9E9F" d="M24.735,16.665c-0.514-0.531-1.118-1.017-1.798-1.447c-1.701-1.076-3.875-1.804-6.288-2.017
		c-0.483-0.042-0.975-0.064-1.475-0.064s-0.992,0.022-1.475,0.064c-2.413,0.213-4.587,0.94-6.288,2.017
		c-0.68,0.43-1.285,0.916-1.798,1.447c-0.156,0.161-0.403,0.561-0.517,1.099c-0.038,0.179-0.061,0.373-0.061,0.579
		c0,0.824,0,1.11,0,1.11c0,0.303,0.062,0.592,0.173,0.855c0.333,0.789,1.114,1.342,2.024,1.342h0h7.941h7.941h0
		c0.91,0,1.69-0.554,2.024-1.342c0.111-0.263,0.173-0.552,0.173-0.855c0,0,0-0.286,0-1.11c0-0.206-0.023-0.4-0.061-0.579
		C25.138,17.226,24.891,16.826,24.735,16.665z M15.174,20.186H7.232c-0.404,0-0.732-0.329-0.732-0.732c0,0,0,0.012,0-0.721
		c0-0.586,0.159-0.937,0.293-1.124c0.034-0.046,0.067-0.09,0.095-0.116c0.681-0.646,1.536-1.214,2.519-1.672
		c1.639-0.763,3.633-1.219,5.767-1.219s4.128,0.456,5.767,1.219c0.983,0.458,1.838,1.025,2.519,1.672
		c0.03,0.029,0.067,0.075,0.105,0.129c0.131,0.191,0.282,0.541,0.282,1.111c0,0.732,0,0.721,0,0.721
		c0,0.403-0.329,0.732-0.732,0.732H15.174z"/>
	<path fill="#9F9E9F" d="M1.465,16.967c0,0,0-0.003,0-0.107c0-0.058,0-0.116,0-0.188c0-0.732,0.251-1.108,0.387-1.238
		c1.217-1.156,2.55-1.954,4.617-2.425c2.512-1.291,0.357-3.3,0.11-3.451C5.56,8.93,4.877,7.804,4.877,6.522
		c0-1.958,1.589-3.55,3.544-3.559c0.173-0.402,0.382-0.787,0.622-1.148C8.845,1.789,8.644,1.77,8.437,1.77
		c-2.625,0-4.752,2.128-4.752,4.753c0,1.734,0.935,3.242,2.323,4.07c-0.005,0.003,0.752,0.702,0.179,0.966
		c-2.311,0.582-4.269,1.662-5.609,3.047C0.37,14.821,0,15.46,0,16.284c0,0.009,0,0.017,0,0.025c0,0.223,0,0.402,0,0.55
		c0,0.067,0,0.107,0,0.107c0,1.213,0.983,2.196,2.197,2.196H3.57v-0.82c0-0.225,0.022-0.437,0.054-0.644H2.197
		C1.793,17.699,1.465,17.37,1.465,16.967z"/>
</g>
</svg>
