<?xml version="1.0" encoding="utf-8"?>
<!-- Generator: Adobe Illustrator 16.0.0, SVG Export Plug-In . SVG Version: 6.00 Build 0)  -->
<!DOCTYPE svg PUBLIC "-//W3C//DTD SVG 1.1//EN" "http://www.w3.org/Graphics/SVG/1.1/DTD/svg11.dtd">
<svg version="1.1" id="Layer_1" xmlns="http://www.w3.org/2000/svg" xmlns:xlink="http://www.w3.org/1999/xlink" x="0px" y="0px"
	 width="154px" height="187px" viewBox="0 0 154 187" enable-background="new 0 0 154 187" xml:space="preserve">
<g>
	<g>
		<path fill="#DFF0E9" d="M14,185c-6.617,0-12-5.383-12-12V14C2,7.383,7.383,2,14,2h126c6.617,0,12,5.383,12,12v159
			c0,6.617-5.383,12-12,12H14z"/>
		<path fill="#8BCEB0" d="M140,4c5.514,0,10,4.486,10,10v159c0,5.514-4.486,10-10,10H14c-5.514,0-10-4.486-10-10V14
			C4,8.486,8.486,4,14,4H140 M140,0H14C6.268,0,0,6.268,0,14v159c0,7.732,6.268,14,14,14h126c7.732,0,14-6.268,14-14V14
			C154,6.268,147.732,0,140,0L140,0z"/>
	</g>
	<g>
		<path fill="#089F61" d="M56.547,83l15.037-22.959L57.957,39h10.385l8.824,14.137L85.809,39h10.295L82.418,60.369L97.455,83H86.74
			l-9.754-15.217L67.201,83H56.547z"/>
	</g>
	<path fill="#089F61" d="M137.666,165.667c0,2.761-2.238,5-5,5H21.333c-2.762,0-5-2.239-5-5v-41c0-2.761,2.238-5,5-5h111.333
		c2.762,0,5,2.239,5,5V165.667z"/>
	<g>
		<path fill="#FFFFFF" d="M43.766,157.689l8.576-13.095l-7.771-12h5.924l5.031,8.063l4.93-8.063h5.873l-7.807,12.188l8.576,12.906
			h-6.111l-5.563-8.679l-5.58,8.679H43.766z"/>
		<path fill="#FFFFFF" d="M69.838,157.689v-24.889h5.066v20.661h12.6v4.228H69.838z"/>
		<path fill="#FFFFFF" d="M89.83,149.524l4.93-0.479c0.297,1.655,0.9,2.871,1.807,3.646c0.906,0.776,2.131,1.164,3.672,1.164
			c1.631,0,2.861-0.345,3.689-1.035c0.828-0.691,1.24-1.498,1.24-2.422c0-0.594-0.174-1.099-0.521-1.516
			c-0.35-0.417-0.955-0.779-1.822-1.088c-0.596-0.205-1.947-0.569-4.059-1.095c-2.717-0.673-4.621-1.501-5.717-2.481
			c-1.541-1.381-2.311-3.064-2.311-5.051c0-1.277,0.361-2.474,1.086-3.586c0.725-1.113,1.77-1.96,3.133-2.542
			s3.01-0.873,4.938-0.873c3.15,0,5.521,0.69,7.115,2.071c1.592,1.381,2.428,3.225,2.506,5.529l-5.066,0.223
			c-0.217-1.29-0.682-2.217-1.395-2.782c-0.713-0.564-1.783-0.847-3.211-0.847c-1.471,0-2.625,0.303-3.457,0.906
			c-0.537,0.389-0.805,0.908-0.805,1.559c0,0.594,0.25,1.102,0.752,1.523c0.641,0.537,2.191,1.096,4.656,1.678
			c2.467,0.582,4.289,1.184,5.471,1.806s2.105,1.472,2.771,2.55c0.67,1.08,1.002,2.412,1.002,3.998c0,1.438-0.398,2.784-1.197,4.039
			c-0.799,1.256-1.93,2.189-3.391,2.799c-1.461,0.611-3.279,0.916-5.461,0.916c-3.172,0-5.607-0.732-7.309-2.199
			S90.162,152.332,89.83,149.524z"/>
	</g>
</g>
</svg>
