<?xml version="1.0" encoding="utf-8"?>
<!-- Generator: Adobe Illustrator 16.0.0, SVG Export Plug-In . SVG Version: 6.00 Build 0)  -->
<!DOCTYPE svg PUBLIC "-//W3C//DTD SVG 1.1//EN" "http://www.w3.org/Graphics/SVG/1.1/DTD/svg11.dtd">
<svg version="1.1" id="Layer_1" xmlns="http://www.w3.org/2000/svg" xmlns:xlink="http://www.w3.org/1999/xlink" x="0px" y="0px"
	 width="154px" height="187px" viewBox="0 0 154 187" enable-background="new 0 0 154 187" xml:space="preserve">
<g>
	<g>
		<path fill="#FDE6E7" d="M14,185.002c-6.617,0-12-5.383-12-12V14C2,7.383,7.383,2,14,2h126c6.617,0,12,5.383,12,12v159.002
			c0,6.617-5.383,12-12,12H14z"/>
		<path fill="#ECA9A9" d="M140,4c5.514,0,10,4.486,10,10v159.002c0,5.514-4.486,10-10,10H14c-5.514,0-10-4.486-10-10V14
			C4,8.486,8.486,4,14,4H140 M140,0H14C6.269,0,0,6.27,0,14v159.002c0,7.73,6.269,14,14,14h126c7.731,0,14-6.27,14-14V14
			C154,6.27,147.731,0,140,0L140,0z"/>
	</g>
	<path fill="#F15858" d="M137.667,165.668c0,2.762-2.239,5-5,5H21.333c-2.761,0-5-2.238-5-5v-41c0-2.762,2.239-5,5-5h111.334
		c2.761,0,5,2.238,5,5V165.668z"/>
	<path fill="#F15858" d="M42.284,102.791c6.891,4.24,19.68-3.479,25.842-18.09c3.294-1.492,11.878-5.814,18.836-5.318
		c5.218,4.424,24.699,13.668,26.974,2.746c1.503-11.443-17.13-11.158-22.948-9.951c-8.019-5.203-11.596-13.152-12.524-15.109
		c5.169-9.541,6.862-27.631-3.28-27.631c-9.279,0.256-10.436,13.551-3.279,28.328c-1.789,7.156-2.783,10.426-6.859,19.631
		C44.233,82.5,35.392,98.551,42.284,102.791z M107.109,78.344c-0.617,2.646-10.457-0.252-13.074-2.141
		C95.974,75.59,107.726,75.697,107.109,78.344z M75.564,40.967c2.037,0,1.772,6.387-0.083,10.668
		C73.676,47.775,73.526,40.967,75.564,40.967z M75.681,64.424c2.027,4.563,5.943,8.936,6.957,9.443
		c-4.056,0.506-10.69,2.434-10.69,2.434C73.602,72.783,74.492,68.965,75.681,64.424z M61.054,85.836
		c-2.898,6.957-9.493,11.885-10.438,9.01C50.003,93.447,57.426,87.773,61.054,85.836z"/>
	<g>
		<path fill="#FFFFFF" d="M42.839,158.17v-26.002h8.426c3.192,0,5.273,0.131,6.242,0.391c1.49,0.389,2.738,1.238,3.742,2.545
			c1.006,1.307,1.508,2.994,1.508,5.063c0,1.598-0.289,2.939-0.868,4.027c-0.58,1.088-1.316,1.941-2.208,2.563
			c-0.893,0.621-1.801,1.031-2.723,1.232c-1.254,0.248-3.068,0.373-5.445,0.373h-3.424v9.809H42.839z M48.089,136.566v7.379h2.873
			c2.07,0,3.453-0.137,4.15-0.408s1.245-0.697,1.641-1.277c0.396-0.58,0.595-1.254,0.595-2.021c0-0.947-0.277-1.727-0.833-2.342
			c-0.557-0.615-1.26-0.998-2.111-1.152c-0.627-0.119-1.885-0.178-3.777-0.178H48.089z"/>
		<path fill="#FFFFFF" d="M67.05,132.168h9.596c2.163,0,3.813,0.166,4.948,0.496c1.524,0.449,2.832,1.248,3.92,2.395
			c1.087,1.148,1.915,2.551,2.483,4.213c0.566,1.66,0.852,3.711,0.852,6.145c0,2.141-0.267,3.986-0.799,5.535
			c-0.65,1.891-1.578,3.422-2.785,4.594c-0.91,0.887-2.14,1.578-3.689,2.074c-1.158,0.367-2.707,0.551-4.646,0.551H67.05V132.168z
			 M72.3,136.566v17.223h3.92c1.466,0,2.523-0.082,3.175-0.25c0.851-0.211,1.558-0.572,2.12-1.08c0.561-0.51,1.02-1.346,1.373-2.51
			c0.355-1.166,0.533-2.752,0.533-4.764c0-2.01-0.178-3.553-0.533-4.629c-0.354-1.076-0.851-1.916-1.489-2.518
			c-0.638-0.604-1.448-1.012-2.43-1.225c-0.733-0.164-2.171-0.248-4.31-0.248H72.3z"/>
		<path fill="#FFFFFF" d="M93.335,158.17v-26.002h17.825v4.398H98.585v6.154h10.855v4.398H98.585v11.051H93.335z"/>
	</g>
</g>
</svg>
