<?xml version="1.0" encoding="utf-8"?>
<!-- Generator: Adobe Illustrator 16.0.0, SVG Export Plug-In . SVG Version: 6.00 Build 0)  -->
<!DOCTYPE svg PUBLIC "-//W3C//DTD SVG 1.1//EN" "http://www.w3.org/Graphics/SVG/1.1/DTD/svg11.dtd">
<svg version="1.1" id="Layer_1" xmlns="http://www.w3.org/2000/svg" xmlns:xlink="http://www.w3.org/1999/xlink" x="0px" y="0px"
	 width="154px" height="187px" viewBox="0 0 154 187" enable-background="new 0 0 154 187" xml:space="preserve">
<g>
	<g>
		<path fill="#FFEEE2" d="M14,185c-6.617,0-12-5.383-12-12V14C2,7.383,7.383,2,14,2h126c6.615,0,12,5.383,12,12v159
			c0,6.617-5.385,12-12,12H14z"/>
		<path fill="#EFB8A5" d="M140,4c5.514,0,10,4.486,10,10v159c0,5.514-4.486,10-10,10H14c-5.514,0-10-4.486-10-10V14
			C4,8.486,8.486,4,14,4H140 M140,0H14C6.268,0,0,6.268,0,14v159c0,7.732,6.268,14,14,14h126c7.732,0,14-6.268,14-14V14
			C154,6.268,147.732,0,140,0L140,0z"/>
	</g>
	<path fill="#F47945" d="M137.666,165.666c0,2.762-2.238,5-5,5H21.333c-2.761,0-5-2.238-5-5v-41c0-2.76,2.239-5,5-5h111.333
		c2.762,0,5,2.24,5,5V165.666z"/>
	<g>
		<path fill="#F47945" d="M60.146,83V39h14.258c5.403,0,8.924,0.22,10.565,0.66c2.521,0.661,4.631,2.097,6.332,4.307
			c1.701,2.211,2.553,5.068,2.553,8.569c0,2.701-0.49,4.973-1.471,6.813c-0.982,1.841-2.227,3.286-3.736,4.337
			c-1.512,1.05-3.047,1.746-4.607,2.085c-2.121,0.42-5.193,0.63-9.215,0.63h-5.793V83H60.146z M69.031,46.444V58.93h4.863
			c3.5,0,5.842-0.23,7.022-0.69c1.182-0.46,2.105-1.18,2.777-2.161c0.67-0.98,1.006-2.121,1.006-3.421
			c0-1.601-0.471-2.921-1.412-3.962c-0.939-1.04-2.131-1.69-3.57-1.951c-1.061-0.2-3.192-0.3-6.393-0.3H69.031z"/>
	</g>
	<g>
		<path fill="#FFFFFF" d="M43.374,158.166v-26h8.424c3.192,0,5.274,0.131,6.243,0.391c1.49,0.391,2.736,1.238,3.742,2.545
			c1.004,1.307,1.508,2.994,1.508,5.064c0,1.596-0.289,2.938-0.869,4.025s-1.316,1.941-2.209,2.563s-1.799,1.031-2.723,1.232
			c-1.252,0.248-3.068,0.373-5.444,0.373h-3.423v9.807H43.374z M48.623,136.564v7.379h2.873c2.069,0,3.452-0.137,4.15-0.408
			s1.243-0.697,1.64-1.277c0.396-0.578,0.594-1.254,0.594-2.021c0-0.945-0.277-1.727-0.834-2.342
			c-0.555-0.613-1.258-0.998-2.11-1.152c-0.627-0.117-1.886-0.178-3.777-0.178H48.623z"/>
		<path fill="#FFFFFF" d="M67.601,158.166v-26h8.424c3.192,0,5.274,0.131,6.243,0.391c1.49,0.391,2.736,1.238,3.742,2.545
			c1.004,1.307,1.508,2.994,1.508,5.064c0,1.596-0.291,2.938-0.869,4.025c-0.58,1.088-1.316,1.941-2.209,2.563
			s-1.799,1.031-2.723,1.232c-1.252,0.248-3.068,0.373-5.444,0.373h-3.424v9.807H67.601z M72.849,136.564v7.379h2.873
			c2.07,0,3.454-0.137,4.151-0.408s1.244-0.697,1.641-1.277c0.396-0.578,0.594-1.254,0.594-2.021c0-0.945-0.277-1.727-0.832-2.342
			c-0.557-0.613-1.26-0.998-2.111-1.152c-0.627-0.117-1.887-0.178-3.778-0.178H72.849z"/>
		<path fill="#FFFFFF" d="M97.68,158.166v-21.602h-7.715v-4.398h20.662v4.398h-7.697v21.602H97.68z"/>
	</g>
</g>
</svg>
