<?xml version="1.0" encoding="utf-8"?>
<!-- Generator: Adobe Illustrator 16.0.0, SVG Export Plug-In . SVG Version: 6.00 Build 0)  -->
<!DOCTYPE svg PUBLIC "-//W3C//DTD SVG 1.1//EN" "http://www.w3.org/Graphics/SVG/1.1/DTD/svg11.dtd">
<svg version="1.1" id="Layer_1" xmlns="http://www.w3.org/2000/svg" xmlns:xlink="http://www.w3.org/1999/xlink" x="0px" y="0px"
	 width="154px" height="187px" viewBox="0 0 154 187" enable-background="new 0 0 154 187" xml:space="preserve">
<g>
	<g>
		<path fill="#D5E6F6" d="M14,185.001c-6.616,0-12-5.383-12-12V14C2,7.384,7.384,2,14,2h126c6.617,0,12,5.384,12,12v159.001
			c0,6.617-5.383,12-12,12H14z"/>
		<path fill="#90B5E0" d="M140,4c5.514,0,10,4.485,10,10v159.001c0,5.514-4.486,10-10,10H14c-5.515,0-10-4.486-10-10V14
			C4,8.485,8.485,4,14,4H140 M140,0H14C6.268,0,0,6.269,0,14v159.001c0,7.732,6.268,14,14,14h126c7.731,0,14-6.268,14-14V14
			C154,6.269,147.731,0,140,0L140,0z"/>
	</g>
	<path fill="#1A7CC1" d="M137.666,165.667c0,2.762-2.238,5-5,5H21.333c-2.761,0-5-2.238-5-5v-41c0-2.762,2.239-5,5-5h111.333
		c2.762,0,5,2.238,5,5V165.667z"/>
	<g>
		<path fill="#1A7CC1" d="M43.656,82.316V39.001H57.69c5.318,0,8.785,0.217,10.401,0.649c2.481,0.65,4.559,2.063,6.234,4.239
			c1.674,2.178,2.511,4.99,2.511,8.437c0,2.659-0.483,4.896-1.448,6.707c-0.965,1.813-2.191,3.235-3.678,4.271
			c-1.488,1.033-3,1.719-4.535,2.053c-2.089,0.414-5.112,0.621-9.072,0.621h-5.701v16.339H43.656z M52.402,46.328V58.62h4.786
			c3.446,0,5.751-0.227,6.913-0.68s2.074-1.162,2.733-2.128c0.66-0.965,0.99-2.087,0.99-3.368c0-1.576-0.464-2.875-1.389-3.9
			c-0.927-1.023-2.098-1.664-3.517-1.92c-1.043-0.197-3.142-0.296-6.293-0.296H52.402z"/>
		<path fill="#1A7CC1" d="M81.033,73.364l8.332-1.271c0.354,1.615,1.072,2.842,2.156,3.68c1.084,0.837,2.601,1.255,4.551,1.255
			c2.146,0,3.762-0.394,4.846-1.182c0.729-0.552,1.094-1.29,1.094-2.216c0-0.631-0.198-1.152-0.592-1.566
			c-0.414-0.394-1.34-0.758-2.777-1.094c-6.697-1.477-10.942-2.826-12.734-4.047c-2.482-1.694-3.723-4.049-3.723-7.063
			c0-2.719,1.072-5.002,3.221-6.854c2.146-1.852,5.475-2.777,9.986-2.777c4.294,0,7.484,0.699,9.573,2.098
			c2.088,1.399,3.525,3.467,4.313,6.205l-7.83,1.448c-0.334-1.222-0.971-2.158-1.905-2.808c-0.937-0.649-2.271-0.976-4.004-0.976
			c-2.187,0-3.753,0.307-4.698,0.916c-0.63,0.434-0.945,0.996-0.945,1.685c0,0.591,0.275,1.093,0.828,1.507
			c0.748,0.553,3.334,1.33,7.756,2.334c4.422,1.005,7.51,2.236,9.263,3.693c1.733,1.478,2.601,3.537,2.601,6.176
			c0,2.876-1.203,5.348-3.605,7.416s-5.959,3.103-10.666,3.103c-4.275,0-7.658-0.866-10.15-2.601
			C83.431,78.692,81.801,76.339,81.033,73.364z"/>
	</g>
	<g>
		<path fill="#FFFFFF" d="M42.871,157.745v-25.148h8.148c3.088,0,5.101,0.125,6.038,0.377c1.44,0.377,2.647,1.197,3.62,2.461
			c0.972,1.264,1.457,2.896,1.457,4.898c0,1.543-0.279,2.842-0.84,3.895c-0.561,1.051-1.271,1.877-2.136,2.479
			c-0.863,0.6-1.741,0.998-2.633,1.191c-1.213,0.24-2.968,0.361-5.267,0.361h-3.311v9.486H42.871z M47.949,136.851v7.137h2.779
			c2.001,0,3.339-0.133,4.014-0.395c0.674-0.264,1.203-0.676,1.586-1.236s0.575-1.211,0.575-1.955c0-0.914-0.269-1.67-0.806-2.264
			c-0.538-0.596-1.219-0.967-2.042-1.115c-0.606-0.115-1.824-0.172-3.653-0.172H47.949z"/>
		<path fill="#FFFFFF" d="M65.018,149.562l4.94-0.48c0.298,1.658,0.901,2.877,1.81,3.654c0.91,0.777,2.136,1.166,3.68,1.166
			c1.635,0,2.867-0.346,3.697-1.037c0.829-0.691,1.244-1.5,1.244-2.428c0-0.594-0.175-1.1-0.523-1.518
			c-0.35-0.418-0.959-0.781-1.827-1.09c-0.595-0.205-1.95-0.572-4.065-1.098c-2.723-0.676-4.632-1.504-5.73-2.488
			c-1.543-1.383-2.316-3.07-2.316-5.061c0-1.279,0.363-2.479,1.09-3.594s1.773-1.963,3.14-2.547s3.017-0.875,4.948-0.875
			c3.157,0,5.533,0.693,7.128,2.076c1.597,1.383,2.434,3.23,2.514,5.541l-5.077,0.223c-0.218-1.291-0.684-2.221-1.398-2.787
			s-1.787-0.85-3.217-0.85c-1.475,0-2.631,0.303-3.465,0.908c-0.537,0.391-0.807,0.91-0.807,1.563c0,0.594,0.252,1.104,0.755,1.527
			c0.64,0.537,2.196,1.098,4.666,1.68c2.471,0.584,4.298,1.188,5.481,1.811s2.109,1.475,2.778,2.555
			c0.669,1.082,1.004,2.418,1.004,4.006c0,1.441-0.4,2.791-1.201,4.049c-0.8,1.258-1.933,2.193-3.396,2.805
			s-3.288,0.918-5.472,0.918c-3.18,0-5.621-0.734-7.326-2.205C66.367,154.517,65.35,152.376,65.018,149.562z"/>
		<path fill="#FFFFFF" d="M89.72,132.597h9.281c2.093,0,3.688,0.16,4.786,0.48c1.475,0.434,2.738,1.205,3.791,2.314
			c1.052,1.109,1.853,2.469,2.4,4.074c0.55,1.607,0.824,3.59,0.824,5.945c0,2.07-0.258,3.854-0.771,5.352
			c-0.629,1.83-1.527,3.311-2.693,4.443c-0.881,0.857-2.07,1.527-3.568,2.006c-1.121,0.355-2.619,0.533-4.494,0.533H89.72V132.597z
			 M94.798,136.851v16.656h3.791c1.418,0,2.441-0.08,3.071-0.24c0.822-0.205,1.506-0.555,2.049-1.045
			c0.544-0.492,0.986-1.301,1.33-2.428c0.343-1.127,0.515-2.662,0.515-4.605c0-1.945-0.172-3.438-0.515-4.479
			c-0.344-1.041-0.823-1.854-1.441-2.436c-0.617-0.584-1.4-0.979-2.35-1.184c-0.709-0.16-2.1-0.24-4.168-0.24H94.798z"/>
	</g>
</g>
</svg>
