<?xml version="1.0" encoding="utf-8"?>
<!-- Generator: Adobe Illustrator 16.0.0, SVG Export Plug-In . SVG Version: 6.00 Build 0)  -->
<!DOCTYPE svg PUBLIC "-//W3C//DTD SVG 1.1//EN" "http://www.w3.org/Graphics/SVG/1.1/DTD/svg11.dtd">
<svg version="1.1" id="Layer_1" xmlns="http://www.w3.org/2000/svg" xmlns:xlink="http://www.w3.org/1999/xlink" x="0px" y="0px"
	 width="154px" height="187px" viewBox="0 0 154 187" enable-background="new 0 0 154 187" xml:space="preserve">
<g>
	<g>
		<path fill="#F1D9E9" d="M14,185c-6.617,0-12-5.383-12-12V14C2,7.383,7.383,2,14,2h126c6.617,0,12,5.383,12,12v159
			c0,6.617-5.383,12-12,12H14z"/>
		<path fill="#CD9FC9" d="M140,4c5.514,0,10,4.486,10,10v159c0,5.514-4.486,10-10,10H14c-5.514,0-10-4.486-10-10V14
			C4,8.486,8.486,4,14,4H140 M140,0H14C6.268,0,0,6.268,0,14v159c0,7.732,6.268,14,14,14h126c7.732,0,14-6.268,14-14V14
			C154,6.268,147.732,0,140,0L140,0z"/>
	</g>
	<path fill="#984B9D" d="M137.666,165.666c0,2.762-2.238,5-5,5H21.333c-2.761,0-5-2.238-5-5v-41c0-2.761,2.239-5,5-5h111.333
		c2.762,0,5,2.239,5,5V165.666z"/>
	<g>
		<path fill="#984B9D" d="M67.449,74.958h-1.576c-0.863,0-1.564-0.701-1.564-1.565v-4.484v-6.943v-1.928V57.48v-8.871
			c0-0.865,0.701-1.566,1.564-1.566h1.576h3.277H80.4v-3.312c0-2.612-2.119-4.731-4.731-4.731H61.002
			c-2.613,0-4.731,2.119-4.731,4.731V78.27c0,2.614,2.118,4.732,4.731,4.732h14.667c2.612,0,4.731-2.118,4.731-4.732v-3.312h-9.674
			H67.449z"/>
		<path fill="#984B9D" d="M95.363,51.068H70.759c-1.307,0-2.365,1.059-2.365,2.365v2.379v1.994v6.388v1.243v3.13
			c0,1.307,1.059,2.365,2.365,2.365h24.604c1.307,0,2.365-1.059,2.365-2.365v-3.13v-1.243v-6.388v-1.994v-2.379
			C97.729,52.127,96.67,51.068,95.363,51.068z"/>
	</g>
	<g>
		<path fill="#FFFFFF" d="M39.082,158.166v-26h11.049c2.777,0,4.797,0.234,6.057,0.701c1.259,0.467,2.268,1.297,3.023,2.492
			c0.757,1.193,1.135,2.56,1.135,4.096c0,1.951-0.572,3.563-1.72,4.833c-1.147,1.271-2.861,2.073-5.144,2.403
			c1.135,0.662,2.072,1.39,2.812,2.182c0.739,0.793,1.734,2.199,2.988,4.221l3.175,5.072h-6.279l-3.795-5.656
			c-1.348-2.022-2.27-3.297-2.766-3.822c-0.497-0.527-1.023-0.887-1.58-1.082c-0.555-0.195-1.436-0.293-2.643-0.293h-1.063v10.854
			H39.082z M44.332,143.162h3.883c2.519,0,4.092-0.105,4.719-0.319c0.625-0.212,1.116-0.579,1.472-1.099
			c0.354-0.521,0.532-1.171,0.532-1.951c0-0.875-0.234-1.582-0.701-2.119c-0.467-0.538-1.126-0.879-1.977-1.021
			c-0.427-0.059-1.703-0.089-3.832-0.089h-4.096V143.162z"/>
		<path fill="#FFFFFF" d="M88.74,158.166h-5.711l-2.27-5.906H70.367l-2.146,5.906h-5.569l10.127-26h5.551L88.74,158.166z
			 M79.074,147.88l-3.583-9.647l-3.512,9.647H79.074z"/>
		<path fill="#FFFFFF" d="M91.543,158.166v-26h11.049c2.779,0,4.797,0.234,6.057,0.701s2.268,1.297,3.023,2.492
			c0.758,1.193,1.135,2.56,1.135,4.096c0,1.951-0.572,3.563-1.719,4.833c-1.146,1.271-2.861,2.073-5.145,2.403
			c1.137,0.662,2.072,1.39,2.813,2.182c0.738,0.793,1.734,2.199,2.988,4.221l3.174,5.072h-6.277l-3.797-5.656
			c-1.348-2.022-2.27-3.297-2.766-3.822c-0.498-0.527-1.023-0.887-1.578-1.082c-0.557-0.195-1.438-0.293-2.643-0.293h-1.064v10.854
			H91.543z M96.793,143.162h3.883c2.52,0,4.092-0.105,4.719-0.319c0.627-0.212,1.117-0.579,1.471-1.099
			c0.355-0.521,0.533-1.171,0.533-1.951c0-0.875-0.234-1.582-0.701-2.119c-0.467-0.538-1.127-0.879-1.977-1.021
			c-0.426-0.059-1.703-0.089-3.832-0.089h-4.096V143.162z"/>
	</g>
</g>
</svg>
