<?xml version="1.0" encoding="utf-8"?>
<!-- Generator: Adobe Illustrator 16.0.0, SVG Export Plug-In . SVG Version: 6.00 Build 0)  -->
<!DOCTYPE svg PUBLIC "-//W3C//DTD SVG 1.1//EN" "http://www.w3.org/Graphics/SVG/1.1/DTD/svg11.dtd">
<svg version="1.1" id="Layer_1" xmlns="http://www.w3.org/2000/svg" xmlns:xlink="http://www.w3.org/1999/xlink" x="0px" y="0px"
	 width="154px" height="187px" viewBox="0 0 154 187" enable-background="new 0 0 154 187" xml:space="preserve">
<g>
	<g>
		<path fill="#D1EDF4" d="M14,185c-6.617,0-12-5.383-12-12V14C2,7.383,7.383,2,14,2h126c6.617,0,12,5.383,12,12v159
			c0,6.617-5.383,12-12,12H14z"/>
		<path fill="#8FCBD5" d="M140,4c5.514,0,10,4.486,10,10v159c0,5.515-4.486,10-10,10H14c-5.514,0-10-4.485-10-10V14
			C4,8.486,8.486,4,14,4H140 M140,0H14C6.268,0,0,6.268,0,14v159c0,7.732,6.268,14,14,14h126c7.732,0,14-6.268,14-14V14
			C154,6.268,147.732,0,140,0L140,0z"/>
	</g>
	<path fill="#0197C9" d="M137.666,165.667c0,2.761-2.238,5-5,5H21.334c-2.762,0-5-2.239-5-5v-41c0-2.761,2.238-5,5-5h111.332
		c2.762,0,5,2.239,5,5V165.667z"/>
	<g>
		<path fill="#0197C9" d="M58.639,82.984L48.138,39h9.091l6.631,30.212L71.899,39H82.46l7.712,30.723L96.923,39h8.939L95.182,82.984
			h-9.42l-8.761-32.883L68.27,82.984H58.639z"/>
	</g>
	<g>
		<path fill="#FFFFFF" d="M39.924,132.598h9.334c2.105,0,3.709,0.162,4.813,0.484c1.484,0.437,2.755,1.213,3.813,2.328
			c1.058,1.116,1.863,2.482,2.415,4.098c0.552,1.616,0.828,3.609,0.828,5.979c0,2.082-0.259,3.876-0.776,5.383
			c-0.633,1.84-1.535,3.33-2.709,4.469c-0.886,0.862-2.082,1.535-3.588,2.018c-1.127,0.357-2.635,0.535-4.521,0.535h-9.61V132.598z
			 M45.031,136.877v16.752h3.813c1.426,0,2.455-0.08,3.088-0.241c0.828-0.207,1.517-0.558,2.063-1.052
			c0.546-0.495,0.992-1.309,1.337-2.441s0.518-2.678,0.518-4.633s-0.173-3.456-0.518-4.503c-0.345-1.046-0.828-1.863-1.449-2.45
			c-0.621-0.586-1.409-0.982-2.364-1.189c-0.713-0.162-2.11-0.242-4.192-0.242H45.031z"/>
		<path fill="#FFFFFF" d="M64.423,145.4c0-2.576,0.386-4.739,1.156-6.488c0.575-1.287,1.359-2.443,2.355-3.467
			c0.994-1.023,2.084-1.783,3.269-2.277c1.576-0.668,3.394-1.001,5.452-1.001c3.727,0,6.708,1.155,8.945,3.468
			s3.355,5.527,3.355,9.645c0,4.083-1.109,7.277-3.329,9.584c-2.22,2.306-5.188,3.459-8.902,3.459c-3.762,0-6.752-1.147-8.972-3.442
			C65.533,152.586,64.423,149.426,64.423,145.4z M69.686,145.228c0,2.864,0.66,5.035,1.983,6.513
			c1.323,1.479,3.003,2.217,5.038,2.217s3.706-0.733,5.012-2.199c1.306-1.467,1.959-3.666,1.959-6.6
			c0-2.898-0.636-5.061-1.907-6.486c-1.271-1.427-2.959-2.141-5.063-2.141s-3.802,0.723-5.09,2.166S69.686,142.317,69.686,145.228z"
			/>
		<path fill="#FFFFFF" d="M109.124,148.592l4.952,1.57c-0.759,2.76-2.021,4.811-3.787,6.15s-4.005,2.01-6.72,2.01
			c-3.358,0-6.119-1.147-8.281-3.442c-2.162-2.294-3.243-5.431-3.243-9.411c0-4.209,1.087-7.479,3.261-9.809
			c2.174-2.328,5.031-3.493,8.574-3.493c3.094,0,5.607,0.915,7.539,2.743c1.15,1.082,2.013,2.635,2.588,4.658l-5.055,1.207
			c-0.299-1.311-0.923-2.346-1.872-3.105c-0.949-0.758-2.103-1.139-3.459-1.139c-1.875,0-3.396,0.674-4.563,2.02
			s-1.751,3.525-1.751,6.539c0,3.197,0.575,5.475,1.726,6.832c1.149,1.357,2.645,2.035,4.485,2.035c1.356,0,2.524-0.432,3.503-1.294
			C107.997,151.801,108.699,150.443,109.124,148.592z"/>
	</g>
</g>
</svg>
