<?xml version="1.0" encoding="utf-8"?>
<!-- Generator: Adobe Illustrator 16.0.0, SVG Export Plug-In . SVG Version: 6.00 Build 0)  -->
<!DOCTYPE svg PUBLIC "-//W3C//DTD SVG 1.1//EN" "http://www.w3.org/Graphics/SVG/1.1/DTD/svg11.dtd">
<svg version="1.1" id="Layer_1" xmlns="http://www.w3.org/2000/svg" xmlns:xlink="http://www.w3.org/1999/xlink" x="0px" y="0px"
	 width="49px" height="54.75px" viewBox="0 0 49 54.75" enable-background="new 0 0 49 54.75" xml:space="preserve">
<g>
	<g>
		<path fill="#C2C4CA" d="M24.5,0C10.969,0,0,10.969,0,24.5c0,6.577,2.592,12.549,6.809,16.949L0.791,54.75l14.023-7.739
			C17.785,48.291,21.061,49,24.5,49C38.031,49,49,38.031,49,24.5S38.031,0,24.5,0z M24.5,43C24.5,43,6,43,6,24.5
			C6,14.299,14.299,6,24.5,6S43,14.299,43,24.5S34.701,43,24.5,43z"/>
		<circle fill="#C2C4CA" cx="13.5" cy="24.5" r="3"/>
		<circle fill="#C2C4CA" cx="24.5" cy="24.5" r="3"/>
		<circle fill="#C2C4CA" cx="35.5" cy="24.5" r="3"/>
	</g>
</g>
</svg>
