<?xml version="1.0" encoding="utf-8"?>
<!-- Generator: Adobe Illustrator 16.0.0, SVG Export Plug-In . SVG Version: 6.00 Build 0)  -->
<!DOCTYPE svg PUBLIC "-//W3C//DTD SVG 1.1//EN" "http://www.w3.org/Graphics/SVG/1.1/DTD/svg11.dtd">
<svg version="1.1" id="Layer_1" xmlns="http://www.w3.org/2000/svg" xmlns:xlink="http://www.w3.org/1999/xlink" x="0px" y="0px"
	 width="53.916px" height="53.93px" viewBox="0 0 53.916 53.93" enable-background="new 0 0 53.916 53.93" xml:space="preserve">
<path fill="#51B848" d="M1.952,5.859C0.653,8.258-0.005,10.641,0,12.986c-0.006,0.689,0.043,1.355,0.135,2.004
	c0.088,0.658,0.246,1.387,0.479,2.207c0.223,0.814,0.408,1.416,0.553,1.816c0.137,0.398,0.4,1.109,0.785,2.127
	s0.615,1.65,0.693,1.877c0.885,2.5,1.947,4.736,3.176,6.701c2.008,3.264,4.768,6.645,8.254,10.133
	c3.482,3.482,6.859,6.236,10.123,8.246c1.965,1.227,4.201,2.289,6.705,3.188c0.232,0.074,0.855,0.303,1.873,0.68
	c1.027,0.387,1.738,0.65,2.127,0.793c0.4,0.137,1.006,0.326,1.82,0.555c0.816,0.232,1.553,0.391,2.203,0.479
	c0.658,0.086,1.324,0.139,2.012,0.139c2.348,0,4.725-0.658,7.12-1.961c2.578-1.426,4.141-2.775,4.676-4.061
	c0.279-0.637,0.543-1.514,0.803-2.619c0.254-1.111,0.381-2.014,0.381-2.701c0-0.361-0.035-0.623-0.113-0.809
	c-0.15-0.459-1.121-1.135-2.912-2.025c-0.482-0.281-1.176-0.666-2.063-1.148c-0.895-0.482-1.707-0.936-2.438-1.342
	c-0.725-0.408-1.404-0.799-2.045-1.186c-0.102-0.078-0.42-0.299-0.955-0.676c-0.545-0.367-0.992-0.641-1.361-0.824
	c-0.367-0.174-0.736-0.262-1.096-0.262c-0.508,0-1.148,0.357-1.912,1.086s-1.465,1.52-2.105,2.379
	c-0.641,0.854-1.314,1.645-2.025,2.377c-0.721,0.729-1.307,1.088-1.764,1.092c-0.229-0.004-0.518-0.066-0.863-0.191
	c-0.348-0.129-0.605-0.238-0.785-0.322c-0.176-0.096-0.482-0.271-0.918-0.543c-0.434-0.273-0.68-0.412-0.732-0.439
	c-3.49-1.943-6.494-4.168-8.996-6.666c-2.504-2.504-4.729-5.5-6.662-8.992c-0.025-0.053-0.176-0.297-0.438-0.736
	c-0.271-0.43-0.457-0.736-0.539-0.916c-0.092-0.18-0.203-0.443-0.33-0.787c-0.123-0.342-0.193-0.629-0.189-0.857
	c0-0.463,0.365-1.049,1.094-1.764c0.729-0.717,1.516-1.395,2.377-2.027c0.85-0.641,1.641-1.342,2.367-2.113
	c0.729-0.764,1.092-1.4,1.098-1.912c0-0.359-0.092-0.719-0.271-1.088c-0.186-0.367-0.457-0.824-0.826-1.359
	c-0.367-0.539-0.596-0.859-0.666-0.957c-0.385-0.645-0.779-1.324-1.189-2.049c-0.406-0.732-0.854-1.547-1.336-2.434
	c-0.492-0.895-0.875-1.588-1.158-2.07C13.276,1.24,12.6,0.271,12.139,0.113C11.961,0.043,11.692,0,11.334,0
	c-0.689,0-1.59,0.131-2.703,0.385C7.526,0.639,6.649,0.912,6.012,1.184C4.733,1.719,3.381,3.285,1.952,5.859z"/>
</svg>
