<?xml version="1.0" encoding="utf-8"?>
<!-- Generator: Adobe Illustrator 16.0.0, SVG Export Plug-In . SVG Version: 6.00 Build 0)  -->
<!DOCTYPE svg PUBLIC "-//W3C//DTD SVG 1.1//EN" "http://www.w3.org/Graphics/SVG/1.1/DTD/svg11.dtd">
<svg version="1.1" id="Layer_1" xmlns="http://www.w3.org/2000/svg" xmlns:xlink="http://www.w3.org/1999/xlink" x="0px" y="0px"
	 width="42px" height="58px" viewBox="0 0 42 58" enable-background="new 0 0 42 58" xml:space="preserve">
<path fill="#747575" d="M35,0H7C3.133,0,0,3.134,0,7v44c0,3.866,3.133,7,7,7h28c3.865,0,7-3.134,7-7V7C42,3.134,38.865,0,35,0z
	 M23,52h-4c-1.656,0-3-1.343-3-3s1.344-3,3-3h4c1.656,0,3,1.343,3,3S24.656,52,23,52z M36,36c0,2.209-1.791,4-4,4H10
	c-2.209,0-4-1.791-4-4V10c0-2.209,1.791-4,4-4h22c2.209,0,4,1.791,4,4V36z"/>
</svg>
