<?xml version="1.0" encoding="utf-8"?>
<!-- Generator: Adobe Illustrator 16.0.0, SVG Export Plug-In . SVG Version: 6.00 Build 0)  -->
<!DOCTYPE svg PUBLIC "-//W3C//DTD SVG 1.1//EN" "http://www.w3.org/Graphics/SVG/1.1/DTD/svg11.dtd">
<svg version="1.1" id="Layer_1" xmlns="http://www.w3.org/2000/svg" xmlns:xlink="http://www.w3.org/1999/xlink" x="0px" y="0px"
	 width="73.859px" height="50.879px" viewBox="0 0 73.859 50.879" enable-background="new 0 0 73.859 50.879" xml:space="preserve">
<g>
	<g>
		<path fill="#51B848" d="M71.027,4.439c-0.144,0-0.275,0.02-0.413,0.041c-7.828,1.518-13.735,8.406-13.735,16.674v4.285v4.283
			c0,8.268,5.907,15.156,13.735,16.674c0.138,0.023,0.27,0.043,0.413,0.043c1.567,0,2.832-1.268,2.832-2.832V25.439V7.271
			C73.859,5.705,72.595,4.439,71.027,4.439z"/>
		<path fill="#51B848" d="M39.572,0H11.305C5.061,0,0,5.063,0,11.305v28.27c0,6.242,5.061,11.304,11.305,11.304h28.268
			c6.244,0,11.307-5.063,11.307-11.304v-28.27C50.879,5.063,45.816,0,39.572,0z"/>
	</g>
</g>
</svg>
