<?xml version="1.0" encoding="utf-8"?>
<!-- Generator: Adobe Illustrator 16.0.0, SVG Export Plug-In . SVG Version: 6.00 Build 0)  -->
<!DOCTYPE svg PUBLIC "-//W3C//DTD SVG 1.1//EN" "http://www.w3.org/Graphics/SVG/1.1/DTD/svg11.dtd">
<svg version="1.1" id="Layer_1" xmlns="http://www.w3.org/2000/svg" xmlns:xlink="http://www.w3.org/1999/xlink" x="0px" y="0px"
	 width="19.988px" height="18.998px" viewBox="0 0 19.988 18.998" enable-background="new 0 0 19.988 18.998" xml:space="preserve">
<g>
	<g>
		<path fill="#616770" d="M11,11c2.209,0,4-1.791,4-4V4c0-2.209-1.791-4-4-4H4C1.791,0,0,1.791,0,4v3c0,1.861,1.278,3.412,3,3.858
			c0,0.722,0,1.668,0,1.938c0,0.453,0.57,0.617,1,0.188C4.249,12.735,5.214,11.77,5.984,11H11z"/>
		<path fill="#616770" d="M17,5.908V7c0,3.309-2.691,6-6,6H6.813l-0.889,0.889l-0.51,0.51c-0.015,0.015-0.032,0.025-0.047,0.04
			c0.635,1.37,2.013,2.325,3.622,2.325h5.016c0.77,0.77,1.735,1.735,1.984,1.984c0.43,0.43,1,0.266,1-0.188c0-0.271,0-1.217,0-1.938
			c1.722-0.446,3-1.997,3-3.858v-3C19.988,7.906,18.716,6.358,17,5.908z"/>
	</g>
</g>
</svg>
