<?xml version="1.0" encoding="utf-8"?>
<!-- Generator: Adobe Illustrator 16.0.0, SVG Export Plug-In . SVG Version: 6.00 Build 0)  -->
<!DOCTYPE svg PUBLIC "-//W3C//DTD SVG 1.1//EN" "http://www.w3.org/Graphics/SVG/1.1/DTD/svg11.dtd">
<svg version="1.1" id="Layer_1" xmlns="http://www.w3.org/2000/svg" xmlns:xlink="http://www.w3.org/1999/xlink" x="0px" y="0px"
	 width="13.998px" height="15.998px" viewBox="0 0 13.998 15.998" enable-background="new 0 0 13.998 15.998" xml:space="preserve">
<g>
	<path fill="#959BA7" d="M6.999,15.998c1.104,0,2-0.896,2-2h-4C4.999,15.103,5.895,15.998,6.999,15.998z"/>
	<path fill="#959BA7" d="M13.452,11c-0.794,0-1.453-1.172-1.453-1.984V6c0-2.419-1.718-4.436-4-4.899V1c0-0.552-0.448-1-1-1
		s-1,0.448-1,1v0.101c-2.282,0.464-4,2.48-4,4.899v3.016C1.999,9.828,1.34,11,0.546,11C-0.001,11,0,11.578,0,11.578V12.5
		C0,12.776,0.224,13,0.5,13h6.499h6.499c0.276,0,0.5-0.224,0.5-0.5v-0.922C13.998,11.578,13.999,11,13.452,11z M5.863,3.475
		C5.211,3.811,4.689,4.364,4.394,5.039c-0.319,0.651-1.3,0.253-1.029-0.451C3.763,3.677,4.467,2.93,5.348,2.477
		C5.881,2.179,6.588,3.027,5.863,3.475z"/>
</g>
</svg>
