<?xml version="1.0" encoding="utf-8"?>
<!-- Generator: Adobe Illustrator 16.0.0, SVG Export Plug-In . SVG Version: 6.00 Build 0)  -->
<!DOCTYPE svg PUBLIC "-//W3C//DTD SVG 1.1//EN" "http://www.w3.org/Graphics/SVG/1.1/DTD/svg11.dtd">
<svg version="1.1" id="Layer_1" xmlns="http://www.w3.org/2000/svg" xmlns:xlink="http://www.w3.org/1999/xlink" x="0px" y="0px"
	 width="15.998px" height="11.999px" viewBox="0 0 15.998 11.999" enable-background="new 0 0 15.998 11.999" xml:space="preserve">
<g>
	<g>
		<circle fill="#A1A9B9" cx="5" cy="3" r="3"/>
		<path fill="#A1A9B9" d="M6.813,6.999H3.188C1.427,6.999,0,8.426,0,10.187c0,0.05,0,0.812,0,0.812c0,0.552,0.448,1,1,1h8
			c0.552,0,1-0.448,1-1c0,0,0-0.762,0-0.812C10,8.426,8.573,6.999,6.813,6.999z"/>
		<circle fill="#A1A9B9" cx="12.644" cy="3.961" r="2.012"/>
		<path fill="#A1A9B9" d="M13.86,6.645h-2.432c-0.262,0-0.509,0.054-0.741,0.14c0.761,0.868,1.239,1.982,1.284,3.214h3.357
			c0.371,0,0.671-0.3,0.671-0.671c0,0,0-0.511,0-0.544C15.998,7.602,15.041,6.645,13.86,6.645z"/>
	</g>
</g>
</svg>
