<?xml version="1.0" encoding="utf-8"?>
<!-- Generator: Adobe Illustrator 16.0.0, SVG Export Plug-In . SVG Version: 6.00 Build 0)  -->
<!DOCTYPE svg PUBLIC "-//W3C//DTD SVG 1.1//EN" "http://www.w3.org/Graphics/SVG/1.1/DTD/svg11.dtd">
<svg version="1.1" id="Layer_1" xmlns="http://www.w3.org/2000/svg" xmlns:xlink="http://www.w3.org/1999/xlink" x="0px" y="0px"
	 width="16.989px" height="15.856px" viewBox="0 0 16.989 15.856" enable-background="new 0 0 16.989 15.856" xml:space="preserve">
<g>
	<g>
		<path fill="#338ACA" d="M2.832,5.663H0.566C0.253,5.663,0,5.917,0,6.229v9.061c0,0.313,0.253,0.566,0.566,0.566h2.265
			c0.313,0,0.566-0.253,0.566-0.566V6.229C3.397,5.917,3.144,5.663,2.832,5.663z"/>
		<path fill="#338ACA" d="M16.977,7.164c-0.1-0.878-0.92-1.501-1.804-1.501h-4.415c0.375-0.671,0.577-2.572,0.567-3.348
			C11.311,1.03,10.247,0,8.961,0H8.494C8.182,0,7.928,0.253,7.928,0.566c0,1.31-0.51,3.673-1.472,4.635
			C5.809,5.849,5.256,6.083,4.53,6.445v8.498c1.111,0.37,2.521,0.913,4.671,0.913h3.705c1.221,0,2.171-1.13,1.699-2.325
			c0.72-0.196,1.251-0.857,1.251-1.639c0-0.221-0.042-0.432-0.119-0.626c1.214-0.331,1.661-1.83,0.818-2.772
			C16.865,8.148,17.036,7.675,16.977,7.164z"/>
	</g>
</g>
</svg>
