<?xml version="1.0" encoding="utf-8"?>
<!-- Generator: Adobe Illustrator 16.0.0, SVG Export Plug-In . SVG Version: 6.00 Build 0)  -->
<!DOCTYPE svg PUBLIC "-//W3C//DTD SVG 1.1//EN" "http://www.w3.org/Graphics/SVG/1.1/DTD/svg11.dtd">
<svg version="1.1" id="Layer_1" xmlns="http://www.w3.org/2000/svg" xmlns:xlink="http://www.w3.org/1999/xlink" x="0px" y="0px"
	 width="14.998px" height="13.998px" viewBox="0 0 14.998 13.998" enable-background="new 0 0 14.998 13.998" xml:space="preserve">
<path fill="#959BA7" d="M11.998,0H3C1.343,0,0,1.343,0,3v7.998c0,1.657,1.343,3,3,3h8.998c1.657,0,3-1.343,3-3V3
	C14.998,1.343,13.655,0,11.998,0z M11.516,9.978H8.409H7.565H6.266H6.193H5.497H5.301H4.8H4.727H3.428
	c-0.245,0-0.443-0.199-0.443-0.444c0-0.136,0.062-0.256,0.159-0.338l1.001-1.001L5.17,7.17C5.25,7.082,5.367,7.024,5.497,7.024
	c0.13,0,0.246,0.057,0.327,0.146l0.609,0.609L8.082,6.13c0.081-0.089,0.197-0.146,0.327-0.146c0.13,0,0.245,0.057,0.327,0.146
	l3.066,3.065c0.097,0.082,0.16,0.202,0.16,0.338C11.961,9.779,11.762,9.978,11.516,9.978z"/>
</svg>
