<?xml version="1.0" encoding="utf-8"?>
<!-- Generator: Adobe Illustrator 16.0.0, SVG Export Plug-In . SVG Version: 6.00 Build 0)  -->
<!DOCTYPE svg PUBLIC "-//W3C//DTD SVG 1.1//EN" "http://www.w3.org/Graphics/SVG/1.1/DTD/svg11.dtd">
<svg version="1.1" id="Layer_1" xmlns="http://www.w3.org/2000/svg" xmlns:xlink="http://www.w3.org/1999/xlink" x="0px" y="0px"
	 width="15px" height="14.005px" viewBox="0 0 15 14.005" enable-background="new 0 0 15 14.005" xml:space="preserve">
<path fill="#338ACA" d="M14.999,7.002C14.999,7,15,7,15,6.998h-0.001C14.994,6.45,14.644,5.984,14,5.653
	c0,0-10.75-5.049-11.44-5.374C1.861-0.071,1.001,0.007,1.001,0.007c-0.552,0-1,0.448-1,1v3.229c0,0.552-0.084,1.511,1,1.661
	s6.063,0.568,6.063,1.089c0.004,0.004,0.012,0.01,0.019,0.016C7.076,7.008,7.068,7.014,7.064,7.018c0,0.521-4.978,0.938-6.063,1.089
	s-1,1.109-1,1.661v3.229c0,0.552,0.448,1,1,1c0,0,0.859,0.078,1.558-0.272C3.25,13.401,14,8.352,14,8.352
	c0.644-0.331,0.994-0.796,0.999-1.344H15C15,7.005,14.999,7.004,14.999,7.002z"/>
</svg>
