<?xml version="1.0" encoding="utf-8"?>
<!-- Generator: Adobe Illustrator 16.0.0, SVG Export Plug-In . SVG Version: 6.00 Build 0)  -->
<!DOCTYPE svg PUBLIC "-//W3C//DTD SVG 1.1//EN" "http://www.w3.org/Graphics/SVG/1.1/DTD/svg11.dtd">
<svg version="1.1" id="Layer_1" xmlns="http://www.w3.org/2000/svg" xmlns:xlink="http://www.w3.org/1999/xlink" x="0px" y="0px"
	 width="10.988px" height="11.283px" viewBox="0 0 10.988 11.283" enable-background="new 0 0 10.988 11.283" xml:space="preserve">
<path fill="#959BA7" d="M10.797,6.878L9.76,6.067c0.032-0.283,0.032-0.569,0-0.852l1.038-0.812c0.194-0.157,0.247-0.431,0.123-0.648
	l-1.08-1.865C9.717,1.672,9.453,1.577,9.218,1.666L7.996,2.157C7.766,1.991,7.52,1.848,7.261,1.731L7.073,0.433
	C7.04,0.183,6.826-0.002,6.575,0H4.412C4.162-0.001,3.95,0.182,3.915,0.429L3.727,1.731C3.469,1.849,3.224,1.992,2.994,2.158
	L1.768,1.666c-0.233-0.092-0.497,0.002-0.619,0.22l-1.08,1.869c-0.127,0.217-0.075,0.495,0.123,0.651l1.037,0.811
	c-0.032,0.283-0.032,0.569,0,0.852L0.191,6.879C-0.004,7.036-0.057,7.31,0.068,7.527l1.078,1.865C1.27,9.611,1.535,9.707,1.77,9.618
	l1.223-0.492c0.23,0.167,0.476,0.31,0.735,0.427l0.188,1.298c0.033,0.249,0.246,0.434,0.497,0.433h2.163
	c0.25,0.002,0.462-0.181,0.497-0.429L7.26,9.553c0.257-0.119,0.503-0.261,0.733-0.427l1.227,0.493
	c0.232,0.092,0.497-0.002,0.619-0.22l1.083-1.876C11.044,7.306,10.991,7.033,10.797,6.878z M5.493,7.992
	c-1.298,0-2.351-1.052-2.351-2.35c0-1.299,1.052-2.351,2.351-2.351c1.298,0,2.351,1.052,2.351,2.351
	C7.842,6.939,6.791,7.991,5.493,7.992z"/>
</svg>
