<?xml version="1.0" encoding="utf-8"?>
<!-- Generator: Adobe Illustrator 16.0.0, SVG Export Plug-In . SVG Version: 6.00 Build 0)  -->
<!DOCTYPE svg PUBLIC "-//W3C//DTD SVG 1.1//EN" "http://www.w3.org/Graphics/SVG/1.1/DTD/svg11.dtd">
<svg version="1.1" id="Layer_1" xmlns="http://www.w3.org/2000/svg" xmlns:xlink="http://www.w3.org/1999/xlink" x="0px" y="0px"
	 width="9.978px" height="15.998px" viewBox="0 0 9.978 15.998" enable-background="new 0 0 9.978 15.998" xml:space="preserve">
<g>
	<g>
		<path fill="#959BA7" d="M4.988,9.996c1.657,0,3-1.343,3-3V3c0-1.657-1.343-3-3-3c-1.656,0-3,1.343-3,3v3.996
			C1.988,8.653,3.332,9.996,4.988,9.996z"/>
		<path fill="#959BA7" d="M8.979,8.979c-0.275,0-0.524,0.111-0.705,0.292c0,0-1.176,1.7-3.286,1.7c-2.109,0-3.285-1.7-3.285-1.7
			C1.522,9.09,1.272,8.979,0.997,8.979C0.446,8.979,0,9.425,0,9.977c0,0.273,0.111,0.521,0.29,0.703c0,0,0,0,0.001,0.001
			c0.001,0,0.001,0.001,0.002,0.002c0.899,1.142,2.208,1.94,3.702,2.191v1.124h-2v2h2h2h2v-2h-2v-1.126
			c1.489-0.254,2.792-1.051,3.688-2.189c0.001,0,0.002-0.002,0.002-0.002c0.001-0.001,0.002-0.001,0.002-0.001
			c0.179-0.181,0.29-0.429,0.29-0.703C9.978,9.425,9.531,8.979,8.979,8.979z"/>
	</g>
</g>
</svg>
